<?xml version="1.0" encoding="UTF-8"?>
<svg id="Layer_2" data-name="Layer 2" xmlns="http://www.w3.org/2000/svg" viewBox="0 0 612.14 624.57">
  <defs>
    <style>
      .cls-1 {
        fill: #fff;
      }
    </style>
  </defs>
  <g id="Layer_1-2" data-name="Layer 1">
    <g>
      <path class="cls-1" d="M295.88,0H0V154.21H296.9c86.33,0,158.96,67.98,160.99,154.28,2.09,88.89-69.6,161.85-158.02,161.85h-24.42c-42.58,0-77.11,34.52-77.11,77.11h0c0,42.59,34.52,77.11,77.11,77.11h24.42c173.18,0,313.91-141.7,312.27-315.3C610.5,137.32,467.83,0,295.88,0Z"/>
      <path class="cls-1" d="M0,235.18H319.77c26.6,0,48.2,21.6,48.2,48.2v57.82c0,26.6-21.6,48.2-48.2,48.2H0V235.18H0Z"/>
      <circle class="cls-1" cx="77.11" cy="547.46" r="77.11"/>
    </g>
  </g>
</svg>