<?xml version="1.0" encoding="UTF-8"?>
<svg id="Layer_2" data-name="Layer 2" xmlns="http://www.w3.org/2000/svg" viewBox="0 0 1478.68 363.22">
  <defs>
    <style>
      .cls-1 {
        fill: #fff;
      }
    </style>
  </defs>
  <g id="Layer_1-2" data-name="Layer 1">
    <g>
      <g>
        <g>
          <path class="cls-1" d="M55.08,184.64c-10.36,0-19.74-1.89-28.12-5.66-8.38-3.78-14.97-9.09-19.77-15.93-4.8-6.85-7.2-14.62-7.2-23.32,0-2.69,.22-6.2,.67-10.56,.45-4.35,1.02-9.21,1.73-14.59,.7-5.37,1.47-10.81,2.3-16.31,.83-5.5,1.63-10.81,2.4-15.93l17.85,2.69c-1.41,8.83-2.66,16.92-3.74,24.28-1.09,7.36-1.92,13.63-2.5,18.81-.58,5.18-.86,9.05-.86,11.61,0,5.63,1.53,10.62,4.61,14.97,3.07,4.35,7.42,7.78,13.05,10.27,5.63,2.5,12.15,3.75,19.58,3.75s13.72-1.19,18.91-3.55c5.18-2.37,9.12-5.6,11.81-9.69,2.69-4.1,4.03-8.96,4.03-14.59V60.27h18.04v80.61c0,9.08-2.37,16.89-7.1,23.42-4.74,6.53-11.07,11.54-19,15.07-7.93,3.52-16.83,5.28-26.68,5.28Zm52.59-47.6l.19-15.93h19.77c4.35,0,7.65-.64,9.89-1.92,2.24-1.28,3.81-3.84,4.7-7.68,.89-3.84,1.34-9.47,1.34-16.89V50.67h17.85v43.95c0,10.36-1.15,18.68-3.45,24.95-2.3,6.27-5.92,10.75-10.85,13.44-4.93,2.69-11.42,4.03-19.48,4.03h-19.96Zm62.96,0c-4.61,0-9.12-.86-13.53-2.59-4.42-1.73-8.67-4.45-12.76-8.16l11.32-11.9c2.81,2.3,5.4,4,7.77,5.09,2.37,1.09,4.77,1.63,7.2,1.63h34.74l-7.87,7.68v-44.91c0-2.3-.26-5.53-.77-9.69-.51-4.16-1.19-8.89-2.01-14.2-.83-5.31-1.76-10.72-2.78-16.22l17.47-2.88c.89,4.61,1.79,9.66,2.69,15.16,.89,5.51,1.63,10.75,2.21,15.74,.58,4.99,.86,9.02,.86,12.09v53.17h-44.53Zm44.53,0v-15.93h20.54v15.93h-20.54Zm20.54,0v-15.93c.77,0,1.41,.19,1.92,.58,.51,.39,.89,.9,1.15,1.54,.26,.64,.45,1.44,.58,2.4,.13,.96,.19,2.08,.19,3.36,0,1.15-.07,2.24-.19,3.26-.13,1.02-.32,1.89-.58,2.59-.26,.7-.64,1.25-1.15,1.63-.51,.39-1.15,.58-1.92,.58Z"/>
          <path class="cls-1" d="M235.7,137.04c-.77,0-1.41-.19-1.92-.58-.51-.38-.89-.93-1.15-1.63-.26-.7-.45-1.57-.58-2.59-.13-1.02-.19-2.11-.19-3.26,0-1.66,.1-3.07,.29-4.22s.58-2.04,1.15-2.69c.57-.64,1.38-.96,2.4-.96v15.93Zm0,0v-15.93h47.98v15.93h-47.98Zm47.98,0v-15.93c.77,0,1.41,.19,1.92,.58,.51,.39,.89,.9,1.15,1.54,.26,.64,.45,1.44,.58,2.4,.12,.96,.19,2.08,.19,3.36,0,1.15-.07,2.24-.19,3.26-.13,1.02-.32,1.89-.58,2.59-.26,.7-.64,1.25-1.15,1.63-.51,.39-1.15,.58-1.92,.58Z"/>
          <path class="cls-1" d="M283.68,137.04c-.77,0-1.41-.19-1.92-.58-.51-.38-.89-.93-1.15-1.63-.26-.7-.45-1.57-.58-2.59-.13-1.02-.19-2.11-.19-3.26,0-1.66,.1-3.07,.29-4.22s.58-2.04,1.15-2.69c.57-.64,1.38-.96,2.4-.96v15.93Zm0,0v-15.93h22.84v15.93h-22.84Zm22.84,0V0h17.85V137.04h-17.85Zm17.85,0v-15.93h20.73v15.93h-20.73Zm20.73,0v-15.93c.64,0,1.21,.19,1.73,.58,.51,.39,.89,.9,1.15,1.54,.26,.64,.48,1.44,.67,2.4,.19,.96,.29,2.08,.29,3.36,0,1.15-.1,2.24-.29,3.26-.19,1.02-.42,1.89-.67,2.59-.26,.7-.64,1.25-1.15,1.63-.51,.39-1.09,.58-1.73,.58Z"/>
          <path class="cls-1" d="M345.1,137.04c-.77,0-1.41-.19-1.92-.58-.51-.38-.89-.93-1.15-1.63-.26-.7-.45-1.57-.58-2.59-.13-1.02-.19-2.11-.19-3.26,0-1.66,.1-3.07,.29-4.22s.58-2.04,1.15-2.69c.57-.64,1.38-.96,2.4-.96v15.93Zm0,0v-15.93h47.98v15.93h-47.98Zm47.98,0v-15.93c.77,0,1.41,.19,1.92,.58,.51,.39,.89,.9,1.15,1.54,.26,.64,.45,1.44,.58,2.4,.12,.96,.19,2.08,.19,3.36,0,1.15-.07,2.24-.19,3.26-.13,1.02-.32,1.89-.58,2.59-.26,.7-.64,1.25-1.15,1.63-.51,.39-1.15,.58-1.92,.58Z"/>
          <path class="cls-1" d="M393.08,137.04c-.77,0-1.41-.19-1.92-.58-.51-.38-.89-.93-1.15-1.63-.26-.7-.45-1.57-.58-2.59-.13-1.02-.19-2.11-.19-3.26,0-1.66,.1-3.07,.29-4.22s.58-2.04,1.15-2.69c.57-.64,1.38-.96,2.4-.96v15.93Zm0,0v-15.93h29.75l-9.21,7.3V40.88h18.04v96.16h-38.58Zm20.54,36.28v-18.62h18.04v18.62h-18.04Z"/>
          <path class="cls-1" d="M540.49,137.04c-11.13,0-19.9-1.69-26.29-5.09-6.4-3.39-10.97-8.64-13.72-15.74-2.75-7.1-4.13-16.09-4.13-26.97s1.37-20.09,4.13-27.25c2.75-7.17,7.32-12.48,13.72-15.93,6.4-3.45,15.16-5.18,26.29-5.18h40.69v87.33h-17.85V50.67l7.29,6.33h-30.13c-6.78,0-12.09,.8-15.93,2.4-3.84,1.6-6.53,4.73-8.06,9.41-1.54,4.67-2.3,11.49-2.3,20.44s.77,15.52,2.3,20.06c1.53,4.54,4.19,7.65,7.96,9.31,3.77,1.66,9.12,2.49,16.03,2.49h61.23v15.93h-61.23Zm-21.5-113.44V4.99h17.66V23.61h-17.66Zm28.6,0V4.99h17.66V23.61h-17.66Zm54.13,113.44v-15.93c.77,0,1.41,.19,1.92,.58,.51,.39,.89,.9,1.15,1.54,.26,.64,.45,1.44,.58,2.4,.13,.96,.19,2.08,.19,3.36,0,1.15-.07,2.24-.19,3.26-.13,1.02-.32,1.89-.58,2.59-.26,.7-.64,1.25-1.15,1.63-.51,.39-1.15,.58-1.92,.58Z"/>
          <path class="cls-1" d="M601.72,137.04c-.77,0-1.41-.19-1.92-.58-.51-.38-.89-.93-1.15-1.63-.26-.7-.45-1.57-.58-2.59-.13-1.02-.19-2.11-.19-3.26,0-1.66,.1-3.07,.29-4.22s.58-2.04,1.15-2.69c.57-.64,1.38-.96,2.4-.96v15.93Zm0,0v-15.93h47.98v15.93h-47.98Zm47.98,0v-15.93c.77,0,1.41,.19,1.92,.58,.51,.39,.89,.9,1.15,1.54,.26,.64,.45,1.44,.58,2.4,.12,.96,.19,2.08,.19,3.36,0,1.15-.07,2.24-.19,3.26-.13,1.02-.32,1.89-.58,2.59-.26,.7-.64,1.25-1.15,1.63-.51,.39-1.15,.58-1.92,.58Z"/>
          <path class="cls-1" d="M649.7,137.04c-.77,0-1.41-.19-1.92-.58-.51-.38-.89-.93-1.15-1.63-.26-.7-.45-1.57-.58-2.59-.13-1.02-.19-2.11-.19-3.26,0-1.66,.1-3.07,.29-4.22s.58-2.04,1.15-2.69c.57-.64,1.38-.96,2.4-.96v15.93Zm0,0v-15.93h32.63l-9.21,7.3V40.88h17.85v96.16h-41.27Zm7.49,36.28v-18.62h17.66v18.62h-17.66Zm28.6,0v-18.62h17.66v18.62h-17.66Z"/>
          <path class="cls-1" d="M724.18,137.04V0h17.85V137.04h-17.85Zm17.85,0v-15.93h23.03v15.93h-23.03Zm23.03,0v-15.93c.64,0,1.21,.19,1.73,.58,.51,.39,.89,.9,1.15,1.54,.26,.64,.48,1.44,.67,2.4,.19,.96,.29,2.08,.29,3.36,0,1.15-.1,2.24-.29,3.26-.19,1.02-.42,1.89-.67,2.59-.26,.7-.64,1.25-1.15,1.63-.51,.39-1.09,.58-1.73,.58Z"/>
          <path class="cls-1" d="M765.06,137.04c-.77,0-1.41-.19-1.92-.58-.51-.38-.89-.93-1.15-1.63-.26-.7-.45-1.57-.58-2.59-.13-1.02-.19-2.11-.19-3.26,0-1.66,.1-3.07,.29-4.22s.58-2.04,1.15-2.69c.57-.64,1.38-.96,2.4-.96v15.93Zm0,0v-15.93h47.98v15.93h-47.98Zm47.98,0v-15.93c.77,0,1.41,.19,1.92,.58,.51,.39,.89,.9,1.15,1.54,.25,.64,.45,1.44,.58,2.4,.12,.96,.19,2.08,.19,3.36,0,1.15-.07,2.24-.19,3.26-.13,1.02-.32,1.89-.58,2.59-.26,.7-.64,1.25-1.15,1.63-.51,.39-1.15,.58-1.92,.58Z"/>
          <path class="cls-1" d="M813.04,137.04c-.77,0-1.41-.19-1.92-.58-.51-.38-.9-.93-1.15-1.63-.25-.7-.45-1.57-.58-2.59-.12-1.02-.19-2.11-.19-3.26,0-1.66,.09-3.07,.29-4.22,.19-1.15,.58-2.04,1.15-2.69,.57-.64,1.37-.96,2.4-.96v15.93Zm0,0v-15.93h96.74v15.93h-96.74Zm40.11-1.34c-6.78-5.88-11.96-12.54-15.54-19.96-3.59-7.42-5.38-15.29-5.38-23.61,0-7.42,1.34-14.27,4.03-20.54,2.69-6.27,6.3-11.71,10.85-16.31,4.54-4.61,9.95-8.16,16.22-10.65,6.27-2.5,12.92-3.74,19.96-3.74,3.71,0,7.71,.39,12,1.15,4.28,.77,8.41,1.86,12.38,3.26l-5.95,15.16c-3.07-1.15-6.14-2.01-9.21-2.59-3.07-.58-6.02-.86-8.83-.86-6.53,0-12.32,1.51-17.37,4.51-5.05,3.01-8.99,7.14-11.8,12.38-2.82,5.25-4.22,11.26-4.22,18.04,0,6.27,1.28,12.12,3.84,17.56,2.56,5.44,6.27,10.27,11.13,14.49l-12.09,11.71Z"/>
          <path class="cls-1" d="M933.58,137.04v-15.93h71.02l-13.63,12.09v-39.35c0-9.34-1.06-16.7-3.17-22.07-2.11-5.38-5.53-9.18-10.27-11.42-4.73-2.24-11.13-3.36-19.19-3.36h-15.55v-16.12h15.55c10.62,0,19.7,1.7,27.26,5.09,7.55,3.39,13.3,8.96,17.27,16.7,3.96,7.74,5.95,18.14,5.95,31.19v43.18h-75.24Z"/>
        </g>
        <g>
          <path class="cls-1" d="M14.46,361.37v-127.56H60.93c9.5,0,17.43,1.48,23.79,4.44,6.36,2.96,11.39,7.16,15.09,12.59,3.7,5.43,6.32,11.94,7.87,19.53,1.54,7.59,2.31,16.02,2.31,25.27s-.74,18.05-2.22,26.01c-1.48,7.96-4.07,14.94-7.78,20.92-3.7,5.99-8.7,10.62-15,13.89-6.29,3.27-14.26,4.9-23.88,4.9H14.46Zm17.77-15.37h28.51c6.41,0,11.63-1.36,15.64-4.07,4.01-2.71,7.13-6.42,9.35-11.11s3.76-10.03,4.63-16.02c.86-5.98,1.3-12.37,1.3-19.16s-.43-12.8-1.3-18.42c-.86-5.62-2.41-10.52-4.63-14.72-2.22-4.19-5.34-7.43-9.35-9.72-4.01-2.28-9.23-3.42-15.64-3.42h-28.51v96.64Z"/>
          <path class="cls-1" d="M133.87,361.37v-127.56h17.77v127.56h-17.77Z"/>
          <path class="cls-1" d="M180.71,361.37v-127.56h79.98v15.37h-62.21v39.99h51.1v15h-51.1v41.84h62.21v15.37h-79.98Z"/>
          <path class="cls-1" d="M272.35,361.37l34.25-127.56h35.36l34.25,127.56h-17.96l-8.33-30.55h-51.47l-8.33,30.55h-17.77Zm29.62-45.73h44.62l-17.77-67.02h-9.07l-17.77,67.02Z"/>
          <path class="cls-1" d="M406.21,361.37v-52.21l-40.17-75.35h19.63l29.25,57.02,29.44-57.02h19.62l-39.99,75.35v52.21h-17.77Z"/>
          <path class="cls-1" d="M453.6,361.37l34.25-127.56h35.36l34.25,127.56h-17.96l-8.33-30.55h-51.47l-8.33,30.55h-17.77Zm29.62-45.73h44.62l-17.77-67.02h-9.07l-17.77,67.02Z"/>
          <path class="cls-1" d="M616.15,361.37v-127.56h47.02c9.75,0,17.77,1.51,24.07,4.54,6.29,3.03,10.98,7.62,14.07,13.79,3.08,6.17,4.63,14.13,4.63,23.88s-1.54,17.71-4.63,24.25c-3.09,6.54-7.78,11.48-14.07,14.81-6.29,3.33-14.32,5-24.07,5h-29.25v41.29h-17.77Zm17.77-56.28h29.07c8.76,0,15.09-2.5,18.98-7.5,3.89-5,5.83-12.19,5.83-21.57s-1.94-16.23-5.83-20.55c-3.89-4.32-10.22-6.48-18.98-6.48h-29.07v56.1Z"/>
          <path class="cls-1" d="M726.12,361.37v-127.56h17.77v112.01h54.25v15.55h-72.02Z"/>
          <path class="cls-1" d="M858.13,363.22c-9.63,0-17.87-1.36-24.72-4.07-6.85-2.71-12.07-7.09-15.64-13.15-3.58-6.05-5.37-14.13-5.37-24.25v-87.94h17.77v88.5c0,9.01,2.47,15.52,7.41,19.53,4.93,4.01,11.78,6.02,20.55,6.02,9.26,0,16.35-2,21.29-6.02,4.93-4.01,7.4-10.52,7.4-19.53v-88.5h17.77v87.94c0,9.88-1.79,17.9-5.37,24.07-3.58,6.17-8.83,10.61-15.74,13.33-6.91,2.71-15.37,4.07-25.36,4.07Z"/>
          <path class="cls-1" d="M969.39,363.22c-3.95,0-8.49-.25-13.61-.74-5.12-.49-10.15-1.11-15.09-1.85-4.94-.74-9.26-1.36-12.96-1.85l1.48-14.44c3.58,.37,7.81,.83,12.68,1.39,4.87,.56,9.65,1.02,14.35,1.39,4.69,.37,8.7,.56,12.03,.56,5.68,0,10.37-.83,14.07-2.5,3.7-1.67,6.48-4.17,8.33-7.5,1.85-3.33,2.78-7.65,2.78-12.96,0-4.32-.83-7.74-2.5-10.27-1.67-2.53-4.48-4.56-8.42-6.11-3.95-1.54-9.26-2.93-15.92-4.17-6.79-1.36-12.71-2.93-17.77-4.72-5.06-1.79-9.26-4.04-12.59-6.76-3.33-2.71-5.77-6.14-7.31-10.27-1.54-4.13-2.32-9.23-2.32-15.27,0-8.64,1.7-15.55,5.09-20.74,3.39-5.18,8.27-8.95,14.63-11.29,6.36-2.34,13.79-3.52,22.31-3.52,3.82,0,8.17,.22,13.05,.65,4.87,.43,9.69,.96,14.44,1.57,4.75,.62,8.85,1.24,12.31,1.85l-1.29,14.62c-3.58-.49-7.75-.95-12.5-1.39-4.75-.43-9.35-.83-13.79-1.2-4.44-.37-8.03-.56-10.74-.56-5.68,0-10.4,.68-14.16,2.03-3.77,1.36-6.6,3.4-8.51,6.11-1.92,2.72-2.87,6.23-2.87,10.55,0,4.94,.93,8.7,2.78,11.3,1.85,2.59,4.94,4.63,9.26,6.11,4.32,1.48,10,3.09,17.03,4.81,6.66,1.48,12.37,3.09,17.12,4.81,4.75,1.73,8.67,3.89,11.76,6.48,3.09,2.59,5.34,5.8,6.76,9.63,1.42,3.83,2.13,8.64,2.13,14.44,0,9.51-1.7,17.16-5.09,22.96-3.4,5.8-8.24,10.06-14.53,12.77-6.3,2.71-13.76,4.07-22.4,4.07Z"/>
        </g>
      </g>
      <g>
        <path class="cls-1" d="M1294.76,0h-172.07V89.68h172.66c50.2,0,92.44,39.54,93.62,89.73,1.21,51.7-40.47,94.13-91.9,94.13h-14.2c-24.77,0-44.84,20.08-44.84,44.84h0c0,24.77,20.08,44.84,44.84,44.84h14.2c100.72,0,182.56-82.41,181.6-183.36C1477.73,79.86,1394.76,0,1294.76,0Z"/>
        <path class="cls-1" d="M1122.69,136.77h185.97c15.47,0,28.03,12.56,28.03,28.03v33.63c0,15.47-12.56,28.03-28.03,28.03h-185.97v-89.68h0Z"/>
        <circle class="cls-1" cx="1167.53" cy="318.38" r="44.84"/>
      </g>
    </g>
  </g>
</svg>