<?xml version="1.0" encoding="UTF-8"?>
<svg id="Layer_2" data-name="Layer 2" xmlns="http://www.w3.org/2000/svg" viewBox="0 0 1458.62 523.82">
  <defs>
    <style>
      .cls-1 {
        fill: #fff;
      }
    </style>
  </defs>
  <g id="Layer_1-2" data-name="Layer 1">
    <g>
      <g>
        <path class="cls-1" d="M79.44,266.28c-14.95,0-28.47-2.72-40.55-8.16-12.09-5.45-21.59-13.11-28.51-22.97C3.46,225.27,0,214.06,0,201.51c0-3.87,.32-8.95,.97-15.22,.64-6.27,1.47-13.29,2.49-21.04,1.01-7.75,2.12-15.59,3.32-23.53,1.2-7.93,2.35-15.59,3.46-22.97l25.74,3.87c-2.03,12.73-3.83,24.4-5.4,35.02-1.57,10.61-2.77,19.65-3.6,27.13s-1.24,13.05-1.24,16.74c0,8.12,2.21,15.32,6.64,21.59,4.43,6.27,10.7,11.21,18.82,14.81,8.12,3.6,17.53,5.4,28.23,5.4s19.79-1.71,27.26-5.12c7.47-3.42,13.15-8.07,17.03-13.98,3.87-5.91,5.81-12.92,5.81-21.03V86.92h26.02v116.26c0,13.1-3.42,24.36-10.24,33.77-6.83,9.41-15.96,16.65-27.4,21.73-11.44,5.07-24.27,7.61-38.48,7.61Zm75.84-68.65l.28-22.98h28.51c6.27,0,11.03-.92,14.26-2.76,3.23-1.85,5.49-5.54,6.78-11.07,1.29-5.54,1.94-13.66,1.94-24.36v-63.39h25.74v63.39c0,14.95-1.66,26.94-4.98,35.98-3.32,9.05-8.54,15.5-15.64,19.38-7.11,3.87-16.47,5.81-28.1,5.81h-28.79Zm90.79,0c-6.65,0-13.15-1.25-19.52-3.73-6.37-2.49-12.5-6.41-18.41-11.77l16.33-17.16c4.05,3.32,7.79,5.77,11.21,7.33,3.41,1.57,6.87,2.35,10.38,2.35h50.1l-11.35,11.07V120.96c0-3.32-.37-7.98-1.11-13.98-.74-6-1.71-12.83-2.91-20.48-1.2-7.65-2.54-15.45-4.01-23.39l25.19-4.15c1.29,6.64,2.58,13.94,3.87,21.87,1.29,7.94,2.35,15.5,3.18,22.7,.83,7.19,1.25,13.01,1.25,17.44v76.68h-64.22Zm64.22,0v-22.98h29.62v22.98h-29.62Zm29.62,0v-22.98c1.11,0,2.03,.28,2.77,.83,.73,.56,1.29,1.3,1.66,2.22,.37,.93,.65,2.07,.83,3.46,.18,1.38,.28,3,.28,4.85,0,1.66-.1,3.23-.28,4.71-.19,1.48-.46,2.72-.83,3.73-.37,1.02-.93,1.8-1.66,2.35-.74,.56-1.66,.83-2.77,.83Z"/>
        <path class="cls-1" d="M339.91,197.64c-1.11,0-2.03-.28-2.77-.83-.74-.55-1.29-1.34-1.66-2.35-.37-1.01-.65-2.26-.83-3.73-.18-1.48-.28-3.05-.28-4.71,0-2.4,.14-4.43,.42-6.09,.28-1.66,.83-2.95,1.66-3.87,.83-.92,1.98-1.39,3.46-1.39v22.98Zm0,0v-22.98h69.2v22.98h-69.2Zm69.2,0v-22.98c1.11,0,2.03,.28,2.77,.83,.73,.56,1.29,1.3,1.66,2.22,.37,.93,.65,2.07,.83,3.46,.18,1.38,.28,3,.28,4.85,0,1.66-.1,3.23-.28,4.71-.19,1.48-.46,2.72-.83,3.73-.37,1.02-.93,1.8-1.66,2.35-.74,.56-1.66,.83-2.77,.83Z"/>
        <path class="cls-1" d="M409.11,197.64c-1.11,0-2.03-.28-2.77-.83-.74-.55-1.29-1.34-1.66-2.35-.37-1.01-.65-2.26-.83-3.73-.18-1.48-.28-3.05-.28-4.71,0-2.4,.14-4.43,.42-6.09s.83-2.95,1.66-3.87c.83-.92,1.98-1.39,3.46-1.39v22.98Zm0,0v-22.98h32.94v22.98h-32.94Zm32.94,0V0h25.74V197.64h-25.74Zm25.74,0v-22.98h29.9v22.98h-29.9Zm29.9,0v-22.98c.92,0,1.75,.28,2.49,.83,.74,.56,1.29,1.3,1.66,2.22,.37,.93,.69,2.07,.97,3.46,.28,1.38,.42,3,.42,4.85,0,1.66-.14,3.23-.42,4.71-.28,1.48-.6,2.72-.97,3.73-.37,1.02-.93,1.8-1.66,2.35-.74,.56-1.57,.83-2.49,.83Z"/>
        <path class="cls-1" d="M497.69,197.64c-1.11,0-2.03-.28-2.77-.83-.74-.55-1.29-1.34-1.66-2.35-.37-1.01-.65-2.26-.83-3.73-.18-1.48-.28-3.05-.28-4.71,0-2.4,.14-4.43,.42-6.09,.28-1.66,.83-2.95,1.66-3.87,.83-.92,1.98-1.39,3.46-1.39v22.98Zm0,0v-22.98h69.2v22.98h-69.2Zm69.2,0v-22.98c1.11,0,2.03,.28,2.77,.83,.73,.56,1.29,1.3,1.66,2.22,.37,.93,.65,2.07,.83,3.46,.18,1.38,.28,3,.28,4.85,0,1.66-.1,3.23-.28,4.71-.19,1.48-.46,2.72-.83,3.73-.37,1.02-.93,1.8-1.66,2.35-.74,.56-1.66,.83-2.77,.83Z"/>
        <path class="cls-1" d="M566.89,197.64c-1.11,0-2.03-.28-2.77-.83-.74-.55-1.29-1.34-1.66-2.35-.37-1.01-.65-2.26-.83-3.73-.18-1.48-.28-3.05-.28-4.71,0-2.4,.14-4.43,.42-6.09,.28-1.66,.83-2.95,1.66-3.87,.83-.92,1.98-1.39,3.46-1.39v22.98Zm0,0v-22.98h42.91l-13.29,10.52V58.96h26.02V197.64h-55.64Zm29.62,52.32v-26.85h26.02v26.85h-26.02Z"/>
        <path class="cls-1" d="M779.47,197.64c-16.05,0-28.7-2.44-37.92-7.33-9.23-4.89-15.83-12.46-19.79-22.7-3.97-10.24-5.95-23.2-5.95-38.89s1.98-28.97,5.95-39.3c3.97-10.34,10.56-18,19.79-22.98,9.22-4.98,21.87-7.47,37.92-7.47h58.68v125.94h-25.74V73.08l10.52,9.14h-43.46c-9.78,0-17.44,1.16-22.97,3.46-5.53,2.31-9.41,6.83-11.62,13.57-2.22,6.74-3.32,16.56-3.32,29.47s1.11,22.38,3.32,28.93c2.21,6.55,6.04,11.03,11.49,13.43,5.44,2.4,13.15,3.59,23.11,3.59h88.3v22.98h-88.3Zm-31-163.59V7.2h25.47v26.85h-25.47Zm41.24,0V7.2h25.47v26.85h-25.47Zm78.06,163.59v-22.98c1.11,0,2.03,.28,2.77,.83,.73,.56,1.29,1.3,1.66,2.22,.37,.93,.65,2.07,.83,3.46,.18,1.38,.28,3,.28,4.85,0,1.66-.1,3.23-.28,4.71-.19,1.48-.46,2.72-.83,3.73-.37,1.02-.93,1.8-1.66,2.35-.74,.56-1.66,.83-2.77,.83Z"/>
        <path class="cls-1" d="M867.77,197.64c-1.11,0-2.03-.28-2.77-.83-.74-.55-1.29-1.34-1.66-2.35-.37-1.01-.65-2.26-.83-3.73-.18-1.48-.28-3.05-.28-4.71,0-2.4,.14-4.43,.42-6.09,.28-1.66,.83-2.95,1.66-3.87,.83-.92,1.98-1.39,3.46-1.39v22.98Zm0,0v-22.98h69.2v22.98h-69.2Zm69.2,0v-22.98c1.11,0,2.03,.28,2.77,.83,.73,.56,1.29,1.3,1.66,2.22,.37,.93,.65,2.07,.83,3.46,.18,1.38,.28,3,.28,4.85,0,1.66-.1,3.23-.28,4.71-.19,1.48-.46,2.72-.83,3.73-.37,1.02-.93,1.8-1.66,2.35-.74,.56-1.66,.83-2.77,.83Z"/>
        <path class="cls-1" d="M936.97,197.64c-1.11,0-2.03-.28-2.77-.83-.74-.55-1.29-1.34-1.66-2.35-.37-1.01-.65-2.26-.83-3.73-.18-1.48-.28-3.05-.28-4.71,0-2.4,.14-4.43,.42-6.09s.83-2.95,1.66-3.87c.83-.92,1.98-1.39,3.46-1.39v22.98Zm0,0v-22.98h47.06l-13.29,10.52V58.96h25.74V197.64h-59.51Zm10.8,52.32v-26.85h25.46v26.85h-25.46Zm41.24,0v-26.85h25.46v26.85h-25.46Z"/>
        <path class="cls-1" d="M1044.38,197.64V0h25.74V197.64h-25.74Zm25.74,0v-22.98h33.22v22.98h-33.22Zm33.22,0v-22.98c.92,0,1.75,.28,2.49,.83,.73,.56,1.29,1.3,1.66,2.22,.37,.93,.69,2.07,.97,3.46,.28,1.38,.42,3,.42,4.85,0,1.66-.14,3.23-.42,4.71-.28,1.48-.6,2.72-.97,3.73-.37,1.02-.93,1.8-1.66,2.35-.74,.56-1.57,.83-2.49,.83Z"/>
        <path class="cls-1" d="M1103.33,197.64c-1.11,0-2.03-.28-2.77-.83-.74-.55-1.29-1.34-1.66-2.35-.37-1.01-.65-2.26-.83-3.73-.18-1.48-.28-3.05-.28-4.71,0-2.4,.14-4.43,.42-6.09,.28-1.66,.83-2.95,1.66-3.87,.83-.92,1.98-1.39,3.46-1.39v22.98Zm0,0v-22.98h69.2v22.98h-69.2Zm69.2,0v-22.98c1.11,0,2.03,.28,2.77,.83,.74,.56,1.29,1.3,1.66,2.22,.37,.93,.65,2.07,.83,3.46,.18,1.38,.28,3,.28,4.85,0,1.66-.1,3.23-.28,4.71-.19,1.48-.47,2.72-.83,3.73-.38,1.02-.93,1.8-1.66,2.35-.74,.56-1.66,.83-2.77,.83Z"/>
        <path class="cls-1" d="M1172.53,197.64c-1.11,0-2.03-.28-2.77-.83-.74-.55-1.29-1.34-1.66-2.35-.37-1.01-.65-2.26-.83-3.73-.18-1.48-.28-3.05-.28-4.71,0-2.4,.14-4.43,.42-6.09,.28-1.66,.83-2.95,1.66-3.87,.83-.92,1.98-1.39,3.46-1.39v22.98Zm0,0v-22.98h139.51v22.98h-139.51Zm57.85-1.94c-9.78-8.48-17.26-18.08-22.42-28.79-5.17-10.7-7.75-22.05-7.75-34.05,0-10.7,1.94-20.57,5.81-29.62,3.88-9.04,9.09-16.88,15.64-23.53,6.55-6.64,14.35-11.76,23.39-15.36,9.04-3.6,18.64-5.4,28.79-5.4,5.35,0,11.11,.56,17.3,1.66,6.18,1.11,12.13,2.68,17.85,4.71l-8.58,21.87c-4.43-1.66-8.86-2.9-13.29-3.73-4.43-.83-8.68-1.25-12.73-1.25-9.41,0-17.76,2.17-25.05,6.5-7.29,4.34-12.97,10.29-17.02,17.86-4.06,7.57-6.09,16.24-6.09,26.02,0,9.04,1.84,17.49,5.54,25.32,3.69,7.84,9.04,14.81,16.05,20.9l-17.44,16.88Z"/>
        <path class="cls-1" d="M1346.37,197.64v-22.98h102.42l-19.65,17.44v-56.74c0-13.47-1.52-24.08-4.57-31.83-3.04-7.75-7.98-13.24-14.81-16.47-6.83-3.23-16.05-4.85-27.68-4.85h-22.42v-23.25h22.42c15.31,0,28.41,2.45,39.31,7.33,10.88,4.9,19.19,12.92,24.91,24.08,5.72,11.17,8.58,26.16,8.58,44.98v62.28h-108.5Z"/>
      </g>
      <g>
        <path class="cls-1" d="M20.85,521.15v-183.96H87.87c13.71,0,25.14,2.14,34.31,6.41,9.17,4.28,16.42,10.33,21.76,18.16,5.34,7.83,9.12,17.22,11.35,28.17,2.22,10.95,3.34,23.1,3.34,36.45s-1.07,26.03-3.2,37.51c-2.14,11.48-5.87,21.54-11.21,30.17-5.34,8.64-12.55,15.31-21.63,20.03-9.08,4.72-20.56,7.07-34.44,7.07H20.85Zm25.63-22.16h41.12c9.25,0,16.77-1.96,22.56-5.87,5.78-3.91,10.28-9.26,13.48-16.02,3.2-6.76,5.43-14.46,6.68-23.1,1.24-8.63,1.87-17.84,1.87-27.63s-.63-18.47-1.87-26.57c-1.25-8.1-3.47-15.17-6.68-21.23-3.2-6.05-7.7-10.72-13.48-14.02-5.78-3.29-13.31-4.94-22.56-4.94H46.48v139.37Z"/>
        <path class="cls-1" d="M193.06,521.15v-183.96h25.63v183.96h-25.63Z"/>
        <path class="cls-1" d="M260.61,521.15v-183.96h115.34v22.16h-89.71v57.67h73.69v21.63h-73.69v60.34h89.71v22.16h-115.34Z"/>
        <path class="cls-1" d="M392.77,521.15l49.4-183.96h50.99l49.4,183.96h-25.9l-12.01-44.05h-74.22l-12.01,44.05h-25.63Zm42.72-65.95h64.35l-25.63-96.65h-13.08l-25.63,96.65Z"/>
        <path class="cls-1" d="M585.81,521.15v-75.29l-57.94-108.67h28.3l42.18,82.24,42.45-82.24h28.3l-57.67,108.67v75.29h-25.63Z"/>
        <path class="cls-1" d="M654.16,521.15l49.4-183.96h50.99l49.4,183.96h-25.9l-12.01-44.05h-74.22l-12.01,44.05h-25.63Zm42.72-65.95h64.35l-25.63-96.65h-13.08l-25.63,96.65Z"/>
        <path class="cls-1" d="M888.58,521.15v-183.96h67.82c14.06,0,25.63,2.18,34.71,6.54,9.08,4.37,15.84,10.99,20.29,19.89,4.45,8.9,6.68,20.38,6.68,34.44s-2.23,25.55-6.68,34.98c-4.45,9.44-11.21,16.55-20.29,21.36-9.08,4.81-20.65,7.21-34.71,7.21h-42.18v59.54h-25.63Zm25.63-81.17h41.92c12.63,0,21.76-3.6,27.37-10.81,5.61-7.21,8.41-17.58,8.41-31.11s-2.8-23.4-8.41-29.63c-5.61-6.23-14.73-9.35-27.37-9.35h-41.92v80.9Z"/>
        <path class="cls-1" d="M1047.18,521.15v-183.96h25.63v161.53h78.23v22.43h-103.86Z"/>
        <path class="cls-1" d="M1237.55,523.82c-13.89,0-25.77-1.96-35.65-5.87-9.88-3.91-17.4-10.23-22.56-18.96-5.17-8.72-7.74-20.38-7.74-34.98v-126.82h25.63v127.63c0,13,3.56,22.39,10.68,28.17,7.11,5.79,16.99,8.68,29.63,8.68,13.35,0,23.58-2.89,30.71-8.68,7.11-5.78,10.68-15.17,10.68-28.17v-127.63h25.63v126.82c0,14.24-2.58,25.81-7.74,34.71-5.17,8.9-12.73,15.31-22.7,19.22-9.97,3.91-22.16,5.87-36.58,5.87Z"/>
        <path class="cls-1" d="M1398.01,523.82c-5.7,0-12.24-.36-19.62-1.07-7.39-.71-14.64-1.6-21.76-2.67-7.12-1.07-13.35-1.96-18.69-2.67l2.14-20.82c5.16,.54,11.26,1.2,18.29,2,7.03,.8,13.92,1.47,20.69,2,6.76,.54,12.55,.8,17.36,.8,8.18,0,14.95-1.2,20.29-3.6,5.34-2.4,9.34-6.01,12.01-10.81,2.67-4.81,4-11.03,4-18.69,0-6.23-1.2-11.17-3.6-14.82-2.4-3.64-6.46-6.58-12.15-8.81-5.7-2.22-13.35-4.22-22.96-6.01-9.79-1.96-18.34-4.22-25.63-6.81-7.3-2.58-13.35-5.83-18.16-9.75-4.81-3.91-8.32-8.85-10.55-14.82-2.23-5.96-3.34-13.31-3.34-22.03,0-12.46,2.45-22.43,7.34-29.91,4.9-7.47,11.92-12.9,21.09-16.28,9.17-3.38,19.89-5.08,32.17-5.08,5.51,0,11.79,.32,18.82,.94,7.03,.63,13.97,1.38,20.82,2.27,6.85,.9,12.77,1.78,17.76,2.67l-1.87,21.09c-5.17-.71-11.17-1.38-18.03-2-6.85-.62-13.48-1.2-19.89-1.73-6.41-.54-11.57-.8-15.49-.8-8.19,0-15,.98-20.42,2.93-5.43,1.96-9.52,4.9-12.28,8.81-2.76,3.92-4.14,8.99-4.14,15.22,0,7.12,1.34,12.55,4,16.29,2.67,3.74,7.12,6.67,13.35,8.81,6.23,2.14,14.42,4.45,24.56,6.94,9.61,2.14,17.84,4.45,24.69,6.94,6.85,2.49,12.5,5.61,16.95,9.34,4.45,3.74,7.7,8.37,9.75,13.89,2.04,5.52,3.07,12.46,3.07,20.82,0,13.71-2.45,24.74-7.34,33.11-4.9,8.37-11.88,14.51-20.96,18.42-9.08,3.91-19.85,5.87-32.31,5.87Z"/>
      </g>
    </g>
  </g>
</svg>