<svg width="31" height="31" viewBox="0 0 31 31" fill="none" xmlns="http://www.w3.org/2000/svg">
<path d="M0 31L2.17904 23.0395C0.834415 20.7093 0.127875 18.0678 0.129166 15.3592C0.133041 6.89104 7.02407 0 15.4909 0C19.5997 0.00129167 23.4566 1.60167 26.3577 4.50533C29.2575 7.409 30.854 11.2685 30.8527 15.3734C30.8488 23.8429 23.9578 30.7339 15.4909 30.7339C12.9205 30.7326 10.3876 30.0881 8.14394 28.8636L0 31ZM8.52111 26.0826C10.6859 27.3678 12.7526 28.1377 15.4858 28.139C22.5227 28.139 28.2551 22.4117 28.259 15.3708C28.2616 8.31575 22.5563 2.59625 15.4961 2.59367C8.45394 2.59367 2.72541 8.32092 2.72283 15.3605C2.72154 18.2345 3.5637 20.3864 4.97807 22.6377L3.6877 27.3497L8.52111 26.0826ZM23.2293 19.025C23.1337 18.8648 22.878 18.7692 22.493 18.5767C22.1094 18.3843 20.2223 17.4556 19.8697 17.3277C19.5183 17.1998 19.2626 17.1352 19.0055 17.5202C18.7498 17.9038 18.0135 18.7692 17.7901 19.025C17.5666 19.2807 17.3419 19.313 16.9583 19.1205C16.5746 18.9281 15.3372 18.5238 13.8712 17.2153C12.7306 16.1975 11.9595 14.9407 11.7361 14.5558C11.5126 14.1722 11.7128 13.9642 11.904 13.773C12.0771 13.6012 12.2876 13.3248 12.4801 13.1001C12.6751 12.8779 12.7384 12.7178 12.8676 12.4607C12.9954 12.205 12.9321 11.9802 12.8353 11.7878C12.7384 11.5966 11.9711 9.70687 11.6521 8.93833C11.3395 8.19046 11.0231 8.29121 10.788 8.27958L10.0517 8.26667C9.79598 8.26667 9.38006 8.36225 9.02873 8.74717C8.6774 9.13208 7.6854 10.0595 7.6854 11.9492C7.6854 13.8389 9.06102 15.664 9.25219 15.9198C9.44464 16.1755 11.9582 20.0531 15.8087 21.7155C16.7245 22.1107 17.44 22.3471 17.9968 22.5241C18.9164 22.816 19.7534 22.7747 20.4147 22.6765C21.1523 22.5667 22.6855 21.7478 23.0058 20.8514C23.3262 19.9537 23.3262 19.1851 23.2293 19.025Z" fill="#25D366"/>
</svg>
