<svg width="127" height="126" viewBox="0 0 127 126" fill="none" xmlns="http://www.w3.org/2000/svg">
<path d="M123.379 99.7301L100.609 77.2501C99.5008 76.1472 98.1856 75.2738 96.739 74.68C95.2924 74.0863 93.7429 73.7839 92.1792 73.7901H92.0992C90.5237 73.7947 88.9648 74.1117 87.5126 74.7228C86.0604 75.3338 84.7439 76.2269 83.6392 77.3501C78.5479 82.5027 75.6522 89.4282 75.5608 96.6713C75.4694 103.914 78.1895 110.911 83.1492 116.19C83.3892 116.45 83.6392 116.7 83.8892 116.95C85.274 118.327 86.8028 119.55 88.4492 120.6C92.9507 123.509 98.1999 125.048 103.559 125.03H103.729C107.408 125.018 111.047 124.276 114.437 122.848C117.827 121.42 120.901 119.334 123.479 116.71C125.714 114.443 126.958 111.383 126.939 108.199C126.92 105.016 125.64 101.971 123.379 99.7301ZM122.059 115.3C117.832 119.559 112.265 122.23 106.298 122.864C100.331 123.498 94.3272 122.056 89.2992 118.78C87.8611 117.828 86.5181 116.74 85.2892 115.53C80.3829 110.684 77.6024 104.088 77.5592 97.1928C77.5161 90.2971 80.2139 83.6667 85.0592 78.7601C85.9802 77.8216 87.0787 77.0756 88.2908 76.5657C89.5029 76.0558 90.8043 75.7922 92.1192 75.7901H92.1792C93.4812 75.7856 94.7712 76.0376 95.9757 76.5317C97.1803 77.0259 98.2756 77.7525 99.1992 78.6701L121.969 101.16C123.854 103.024 124.922 105.56 124.939 108.211C124.956 110.863 123.92 113.412 122.059 115.3Z" fill="#3F3D56"/>
<path d="M48.6688 25.9501L25.8989 3.46003C23.6576 1.23634 20.6261 -0.00791255 17.4689 3.78675e-05H17.3989C15.8213 0.0063838 14.2605 0.325114 12.8068 0.937843C11.353 1.55057 10.035 2.44517 8.92883 3.56998C4.71984 7.84466 1.99069 13.3551 1.14129 19.2937C0.291894 25.2323 1.36693 31.2868 4.20886 36.57L4.21887 36.58C5.39127 38.7409 6.84748 40.7353 8.54883 42.51C8.73883 42.73 8.95883 42.95 9.17883 43.17C14.4078 48.3604 21.4813 51.266 28.8489 51.25H29.0289C32.7079 51.2346 36.3474 50.4906 39.7372 49.0608C43.1271 47.6311 46.2001 45.544 48.7789 42.92C49.886 41.7986 50.7614 40.47 51.3551 39.0102C51.9488 37.5505 52.249 35.988 52.2388 34.4122C52.2286 32.8363 51.9081 31.278 51.2955 29.826C50.683 28.374 49.7904 27.057 48.6688 25.9501ZM47.3489 41.52C44.9553 43.955 42.1031 45.8917 38.957 47.2185C35.8109 48.5452 32.4332 49.2357 29.0189 49.25H28.8489C23.7212 49.2481 18.7086 47.7299 14.4414 44.8866C10.1743 42.0433 6.84315 38.0017 4.86694 33.2701C2.89074 28.5386 2.35771 23.3283 3.3349 18.2946C4.31209 13.2609 6.75581 8.62852 10.3588 4.98005C12.2231 3.09521 14.7592 2.0271 17.4102 2.01023C20.0613 1.99336 22.6107 3.02907 24.4988 4.89002L47.2689 27.37C49.1526 29.2376 50.2189 31.7759 50.2339 34.4285C50.2489 37.0811 49.2114 39.6313 47.3489 41.52Z" fill="#3F3D56"/>
<path d="M124.834 106.798L99.7311 82.0041C98.085 80.382 95.8626 79.479 93.5516 79.4933C91.2405 79.5077 89.0295 80.4381 87.4037 82.0806C85.3698 84.1353 83.7608 86.5708 82.6688 89.2478C81.5768 91.9248 81.0231 94.7907 81.0394 97.6818C81.0557 100.573 81.6418 103.432 82.764 106.097C83.8862 108.761 85.5226 111.179 87.5796 113.21C89.6366 115.242 92.0738 116.848 94.752 117.937C97.4302 119.026 100.297 119.577 103.188 119.557C106.079 119.538 108.938 118.948 111.601 117.823C114.264 116.698 116.68 115.059 118.709 113L124.834 106.798Z" fill="#00B4FF"/>
<path d="M50.1293 33.0135L25.026 8.21996C23.3799 6.59778 21.1575 5.69481 18.8465 5.70915C16.5354 5.72349 14.3245 6.65399 12.6986 8.29646C10.6647 10.3512 9.05576 12.7867 7.96373 15.4636C6.8717 18.1406 6.318 21.0066 6.33434 23.8977C6.35067 26.7888 6.93668 29.6483 8.05888 32.3127C9.18109 34.9772 10.8175 37.3943 12.8745 39.4259C14.9315 41.4576 17.3687 43.0638 20.0469 44.1529C22.7251 45.2419 25.5917 45.7924 28.4828 45.7729C31.3738 45.7533 34.2327 45.1641 36.8959 44.039C39.5591 42.9138 41.9744 41.2747 44.0038 39.2154L50.1293 33.0135Z" fill="#00B4FF"/>
<path d="M97.2487 122.24L96.6487 123.82C93.8287 122.75 91.0953 121.677 88.4487 120.6C41.5687 101.47 19.1887 79.0799 4.21869 36.5799L4.20868 36.5699C3.49868 34.5699 2.80867 32.5232 2.13867 30.4299L3.71869 29.9199C4.24699 31.9331 5.01937 33.8742 6.01868 35.6999C6.83868 38.0299 7.68204 40.2999 8.54871 42.5099C22.6187 78.3799 43.3687 98.8799 83.1487 116.19C85.1487 117.06 87.1987 117.923 89.2987 118.78C91.7371 120.369 94.4242 121.538 97.2487 122.24Z" fill="#3F3D56"/>
<path d="M25.482 49.4302L24.0762 50.8535L76.0142 102.151L77.42 100.728L25.482 49.4302Z" fill="#3F3D56"/>
</svg>
