<svg width="180" height="147" viewBox="0 0 180 147" fill="none" xmlns="http://www.w3.org/2000/svg">
<path d="M141.013 146.467H91.9842L91.9748 146.192L89.6338 79.2373H143.364L141.013 146.467ZM92.5343 145.897H140.463L142.774 79.8067H90.2231L92.5343 145.897Z" fill="#3F3D56"/>
<path d="M103.68 91.6426H99.9512V137.791H103.68V91.6426Z" fill="#3F3D56"/>
<path d="M118.364 91.6426H114.635V137.791H118.364V91.6426Z" fill="#3F3D56"/>
<path d="M133.048 91.6426H129.318V137.791H133.048V91.6426Z" fill="#3F3D56"/>
<path d="M174.519 98.8977L174.278 98.7456L113.378 60.2596L118.661 51.9004L118.901 52.0525L179.802 90.5384L174.519 98.8977ZM114.164 60.0825L174.342 98.112L179.016 90.7157L118.838 52.6858L114.164 60.0825Z" fill="#3F3D56"/>
<path d="M159.815 57.1581C158.045 56.0378 155.99 55.4488 153.896 55.4611C151.801 55.4734 149.753 56.0865 147.996 57.2275C146.239 58.3685 144.847 59.9896 143.983 61.8984C143.12 63.8072 142.823 65.9236 143.126 67.9965L146.03 69.8316C145.3 68.1371 145.132 66.2535 145.55 64.4565C145.969 62.6596 146.951 61.0437 148.354 59.8455C149.757 58.6473 151.507 57.9297 153.347 57.7978C155.187 57.6659 157.021 58.1266 158.581 59.1125C160.14 60.0984 161.343 61.5577 162.013 63.2766C162.683 64.9956 162.786 66.8839 162.305 68.6652C161.824 70.4464 160.786 72.027 159.342 73.1755C157.898 74.3239 156.124 74.98 154.281 75.0475L157.185 76.8827C159.187 76.2678 160.972 75.0914 162.326 73.4929C163.68 71.8944 164.547 69.941 164.824 67.8645C165.101 65.7879 164.777 63.6755 163.89 61.7778C163.002 59.88 161.589 58.2767 159.818 57.1581H159.815Z" fill="#3F3D56"/>
<path d="M30.8298 142.188H26.6835L24.71 126.195H30.8309L30.8298 142.188Z" fill="#FEB8B8"/>
<path d="M18.6865 146.037H31.7173V141.003H23.6513C22.3346 141.003 21.0718 141.526 20.1407 142.457C19.2096 143.388 18.6865 144.651 18.6865 145.968V146.037Z" fill="#2F2E41"/>
<path d="M29.3721 117.407L32.2321 120.409L45.1721 110.807L40.9512 106.376L29.3721 117.407Z" fill="#FEB8B8"/>
<path d="M35.1783 121.784L29.6128 115.944L25.9678 119.418L34.959 128.852L35.0095 128.804C35.4816 128.355 35.8604 127.816 36.1243 127.22C36.3883 126.624 36.5322 125.981 36.5479 125.329C36.5635 124.677 36.4507 124.029 36.2157 123.42C35.9807 122.812 35.6282 122.256 35.1783 121.784Z" fill="#2F2E41"/>
<path d="M0.512488 73.5929C0.250083 73.1707 0.0834131 72.6962 0.0242098 72.2026C-0.0349936 71.7091 0.0147032 71.2086 0.169816 70.7363C0.324928 70.2641 0.58168 69.8315 0.92199 69.4692C1.2623 69.1069 1.6779 68.8236 2.13952 68.6392L18.4181 27.1514L24.7634 30.9506L6.68013 70.7511C6.93855 71.5473 6.89585 72.4107 6.56016 73.1776C6.22446 73.9445 5.61909 74.5616 4.85877 74.9119C4.09845 75.2623 3.23604 75.3215 2.43497 75.0784C1.63391 74.8353 0.94986 74.3067 0.512488 73.5929Z" fill="#FEB8B8"/>
<path d="M62.3006 76.5667C61.8046 76.5313 61.3224 76.3875 60.888 76.1455C60.4536 75.9034 60.0776 75.5691 59.7864 75.166C59.4952 74.7629 59.296 74.3009 59.2027 73.8124C59.1095 73.324 59.1245 72.821 59.2467 72.339L35.2314 34.7965L42.0331 31.8926L63.6233 69.906C64.4206 70.1637 65.0955 70.7052 65.5199 71.4277C65.9442 72.1502 66.0885 73.0034 65.9253 73.8253C65.7622 74.6472 65.3029 75.3805 64.6347 75.8861C63.9665 76.3917 63.1359 76.6343 62.3006 76.5679V76.5667Z" fill="#FEB8B8"/>
<path d="M18.5781 69.4381L22.8289 132.616L32.9874 131.72L35.0788 85.1086L40.7556 105.127L53.0055 106.023L48.1568 66.4502L18.5781 69.4381Z" fill="#2F2E41"/>
<path d="M42.549 102.14L40.7554 105.128L28.208 113.792L37.1714 118.573C37.1714 118.573 54.5005 109.012 53.0067 106.024L42.549 102.14Z" fill="#2F2E41"/>
<path d="M9.68262 43.8779L13.2188 33.9136C14.0056 31.6965 15.2242 29.6574 16.8042 27.9144C18.3842 26.1714 20.2942 24.7591 22.4236 23.7591C27.2099 21.9958 32.4154 21.7108 37.3656 22.9411L38.6524 23.2606C42.0839 24.0923 45.299 25.6451 48.0838 27.8157C50.2628 29.5336 52.2233 31.7086 52.3978 34.0483C52.3987 34.0532 52.4001 34.0581 52.402 34.0628C53.0056 36.7082 53.3042 50.4518 53.3042 50.4518H47.9804L48.8226 68.9761L48.7545 68.842C48.7545 68.842 18.0484 74.653 18.0484 71.6651V52.5427L17.4189 45.6189L9.68262 43.8779Z" fill="#CCCCCC"/>
<path d="M38.3442 20.3506C43.0438 20.3506 46.8535 16.5408 46.8535 11.8413C46.8535 7.14176 43.0438 3.33203 38.3442 3.33203C33.6447 3.33203 29.835 7.14176 29.835 11.8413C29.835 16.5408 33.6447 20.3506 38.3442 20.3506Z" fill="#FEB8B8"/>
<path d="M39.6183 8.02516L46.2255 8.28993C47.0568 8.28737 47.9644 8.25804 48.5976 7.72054C49.5513 6.90944 49.3916 5.37892 48.8808 4.23558C47.4573 1.05211 44.2821 -0.0883768 40.7955 0.00528806C37.3088 0.0989529 33.6553 1.28072 31.7777 4.21878C29.9002 7.15684 29.3928 10.867 30.1 14.2811C30.9176 12.5451 32.1762 11.0539 33.7502 9.95632C35.3242 8.85878 37.1586 8.1933 39.0702 8.0263L39.6183 8.02516Z" fill="#2F2E41"/>
<path d="M78.8538 91.2582L54.9389 74.4973C54.7167 74.341 54.5655 74.1029 54.5185 73.8353C54.4714 73.5678 54.5323 73.2924 54.6878 73.0696L73.4582 46.2875C73.6145 46.0653 73.8525 45.9142 74.1201 45.8671C74.3877 45.82 74.663 45.8809 74.8858 46.0364L98.8007 62.7973C99.0229 62.9536 99.1741 63.1917 99.2211 63.4593C99.2682 63.7268 99.2073 64.0022 99.0518 64.225L80.282 91.0064C80.1257 91.2288 79.8876 91.3802 79.6199 91.4274C79.3522 91.4746 79.0767 91.4138 78.8538 91.2582Z" fill="#00B4FF"/>
<path d="M84.2325 73.072L70.1996 63.237C70.0373 63.1233 69.899 62.9787 69.7926 62.8115C69.6862 62.6443 69.6138 62.4578 69.5795 62.2627C69.5451 62.0675 69.5496 61.8674 69.5926 61.674C69.6355 61.4805 69.7162 61.2974 69.8299 61.1351C69.9437 60.9729 70.0882 60.8346 70.2554 60.7282C70.4226 60.6218 70.6091 60.5493 70.8043 60.515C70.9995 60.4807 71.1995 60.4851 71.393 60.5281C71.5864 60.5711 71.7695 60.6517 71.9318 60.7655L85.9647 70.6005C86.2924 70.8302 86.5155 71.1807 86.5848 71.5748C86.6541 71.969 86.564 72.3746 86.3343 72.7023C86.1046 73.0301 85.7541 73.2532 85.36 73.3225C84.9658 73.3918 84.5602 73.3017 84.2325 73.072Z" fill="white"/>
<path d="M81.0118 77.6665L66.979 67.8315C66.8165 67.7179 66.678 67.5733 66.5715 67.4061C66.4649 67.2389 66.3923 67.0523 66.3579 66.857C66.3235 66.6618 66.3278 66.4616 66.3708 66.2681C66.4138 66.0745 66.4944 65.8913 66.6082 65.7289C66.722 65.5665 66.8667 65.4282 67.034 65.3217C67.2013 65.2153 67.388 65.1429 67.5833 65.1086C67.7786 65.0744 67.9787 65.0789 68.1722 65.1221C68.3658 65.1652 68.5489 65.246 68.7112 65.36L82.744 75.195C83.0714 75.4248 83.2941 75.7752 83.3632 76.1692C83.4324 76.5632 83.3422 76.9685 83.1126 77.2961C82.8831 77.6237 82.5328 77.8467 82.1389 77.9161C81.745 77.9856 81.3396 77.8958 81.0118 77.6665Z" fill="white"/>
<path d="M77.7559 82.3113L63.723 72.4763C63.5608 72.3626 63.4225 72.218 63.3161 72.0508C63.2097 71.8836 63.1372 71.6971 63.1029 71.5019C63.0686 71.3067 63.073 71.1067 63.116 70.9133C63.159 70.7198 63.2396 70.5367 63.3534 70.3744C63.4671 70.2121 63.6117 70.0738 63.7789 69.9674C63.9461 69.861 64.1326 69.7886 64.3277 69.7543C64.5229 69.7199 64.7229 69.7244 64.9164 69.7674C65.1099 69.8103 65.293 69.891 65.4552 70.0047L79.4881 79.8397C79.8158 80.0694 80.0389 80.4199 80.1082 80.8141C80.1776 81.2083 80.0875 81.6138 79.8578 81.9416C79.6281 82.2693 79.2776 82.4924 78.8834 82.5618C78.4892 82.6311 78.0836 82.541 77.7559 82.3113Z" fill="white"/>
<path d="M84.1926 63.9808L78.7573 60.1714C78.5948 60.0577 78.4564 59.9132 78.3498 59.7459C78.2432 59.5787 78.1706 59.3922 78.1362 59.1969C78.1018 59.0016 78.1062 58.8015 78.1491 58.6079C78.1921 58.4143 78.2728 58.2311 78.3866 58.0687C78.5004 57.9064 78.6451 57.768 78.8124 57.6616C78.9797 57.5552 79.1663 57.4827 79.3616 57.4485C79.5569 57.4142 79.757 57.4188 79.9506 57.4619C80.1441 57.505 80.3272 57.5859 80.4895 57.6998L85.9249 61.5092C86.2526 61.7389 86.4757 62.0894 86.545 62.4836C86.6143 62.8778 86.5242 63.2833 86.2945 63.6111C86.0648 63.9388 85.7143 64.1619 85.3202 64.2312C84.926 64.3006 84.5204 64.2105 84.1926 63.9808Z" fill="white"/>
</svg>
