<svg width="31" height="31" viewBox="0 0 31 31" fill="none" xmlns="http://www.w3.org/2000/svg">
<g clip-path="url(#clip0_135_1192)">
<path d="M15.5 2.79121C19.6414 2.79121 20.1318 2.80937 21.7605 2.88203C23.2742 2.94863 24.0916 3.20293 24.6365 3.41484C25.357 3.69336 25.8777 4.03242 26.4166 4.57129C26.9615 5.11621 27.2945 5.63086 27.573 6.35137C27.785 6.89629 28.0393 7.71973 28.1059 9.22734C28.1785 10.8621 28.1967 11.3525 28.1967 15.4879C28.1967 19.6293 28.1785 20.1197 28.1059 21.7484C28.0393 23.2621 27.785 24.0795 27.573 24.6244C27.2945 25.3449 26.9555 25.8656 26.4166 26.4045C25.8717 26.9494 25.357 27.2824 24.6365 27.5609C24.0916 27.7729 23.2682 28.0271 21.7605 28.0937C20.1258 28.1664 19.6354 28.1846 15.5 28.1846C11.3586 28.1846 10.8682 28.1664 9.23945 28.0937C7.72578 28.0271 6.9084 27.7729 6.36348 27.5609C5.64297 27.2824 5.12227 26.9434 4.5834 26.4045C4.03848 25.8596 3.70547 25.3449 3.42695 24.6244C3.21504 24.0795 2.96074 23.2561 2.89414 21.7484C2.82148 20.1137 2.80332 19.6232 2.80332 15.4879C2.80332 11.3465 2.82148 10.8561 2.89414 9.22734C2.96074 7.71367 3.21504 6.89629 3.42695 6.35137C3.70547 5.63086 4.04453 5.11016 4.5834 4.57129C5.12832 4.02637 5.64297 3.69336 6.36348 3.41484C6.9084 3.20293 7.73184 2.94863 9.23945 2.88203C10.8682 2.80937 11.3586 2.79121 15.5 2.79121ZM15.5 0C11.292 0 10.7652 0.0181641 9.11231 0.0908203C7.46543 0.163477 6.3332 0.429883 5.35234 0.811328C4.3291 1.21094 3.46328 1.7377 2.60352 2.60352C1.7377 3.46328 1.21094 4.3291 0.811328 5.34629C0.429883 6.3332 0.163477 7.45937 0.0908203 9.10625C0.0181641 10.7652 0 11.292 0 15.5C0 19.708 0.0181641 20.2348 0.0908203 21.8877C0.163477 23.5346 0.429883 24.6668 0.811328 25.6477C1.21094 26.6709 1.7377 27.5367 2.60352 28.3965C3.46328 29.2562 4.3291 29.7891 5.34629 30.1826C6.3332 30.5641 7.45937 30.8305 9.10625 30.9031C10.7592 30.9758 11.2859 30.9939 15.4939 30.9939C19.702 30.9939 20.2287 30.9758 21.8816 30.9031C23.5285 30.8305 24.6607 30.5641 25.6416 30.1826C26.6588 29.7891 27.5246 29.2562 28.3844 28.3965C29.2441 27.5367 29.777 26.6709 30.1705 25.6537C30.552 24.6668 30.8184 23.5406 30.891 21.8938C30.9637 20.2408 30.9818 19.7141 30.9818 15.5061C30.9818 11.298 30.9637 10.7713 30.891 9.11836C30.8184 7.47148 30.552 6.33926 30.1705 5.3584C29.7891 4.3291 29.2623 3.46328 28.3965 2.60352C27.5367 1.74375 26.6709 1.21094 25.6537 0.817383C24.6668 0.435937 23.5406 0.169531 21.8938 0.096875C20.2348 0.0181641 19.708 0 15.5 0Z" fill="#000100"/>
<path d="M15.5 7.53809C11.1043 7.53809 7.53809 11.1043 7.53809 15.5C7.53809 19.8957 11.1043 23.4619 15.5 23.4619C19.8957 23.4619 23.4619 19.8957 23.4619 15.5C23.4619 11.1043 19.8957 7.53809 15.5 7.53809ZM15.5 20.6646C12.6482 20.6646 10.3354 18.3518 10.3354 15.5C10.3354 12.6482 12.6482 10.3354 15.5 10.3354C18.3518 10.3354 20.6646 12.6482 20.6646 15.5C20.6646 18.3518 18.3518 20.6646 15.5 20.6646Z" fill="#000100"/>
<path d="M25.6355 7.22305C25.6355 8.25235 24.8 9.08184 23.7768 9.08184C22.7475 9.08184 21.918 8.24629 21.918 7.22305C21.918 6.19375 22.7535 5.36426 23.7768 5.36426C24.8 5.36426 25.6355 6.19981 25.6355 7.22305Z" fill="#000100"/>
</g>
<defs>
<clipPath id="clip0_135_1192">
<rect width="31" height="31" fill="white"/>
</clipPath>
</defs>
</svg>
