<?xml version="1.0" encoding="UTF-8"?>
<svg id="Layer_2" data-name="Layer 2" xmlns="http://www.w3.org/2000/svg" viewBox="0 0 1117.56 1214.56">
  <defs>
    <style>
      .cls-1 {
        fill: #fff;
      }
    </style>
  </defs>
  <g id="Layer_1-2" data-name="Layer 1">
    <g>
      <g>
        <path class="cls-1" d="M60.87,1017.24c-11.45,0-21.81-2.09-31.07-6.26-9.26-4.17-16.54-10.04-21.84-17.6-5.3-7.57-7.95-16.15-7.95-25.77,0-2.97,.24-6.85,.74-11.66,.49-4.81,1.13-10.18,1.91-16.12,.77-5.94,1.62-11.94,2.54-18.03,.92-6.08,1.8-11.94,2.65-17.6l19.72,2.97c-1.56,9.76-2.94,18.7-4.13,26.83-1.2,8.13-2.12,15.06-2.76,20.78-.64,5.73-.95,10-.95,12.83,0,6.22,1.7,11.74,5.09,16.54,3.39,4.81,8.2,8.59,14.42,11.35,6.22,2.76,13.43,4.14,21.63,4.14s15.16-1.31,20.89-3.92c5.73-2.62,10.07-6.19,13.04-10.71,2.97-4.53,4.45-9.9,4.45-16.12v-89.07h19.94v89.07c0,10.04-2.62,18.66-7.85,25.87-5.23,7.21-12.23,12.76-21,16.65-8.77,3.89-18.59,5.83-29.48,5.83Zm58.11-52.59l.21-17.6h21.84c4.81,0,8.45-.71,10.92-2.12,2.47-1.42,4.21-4.24,5.2-8.48,.99-4.24,1.48-10.46,1.48-18.66v-48.57h19.72v48.57c0,11.45-1.27,20.64-3.82,27.57-2.54,6.93-6.54,11.88-11.98,14.85-5.44,2.97-12.62,4.45-21.53,4.45h-22.06Zm69.56,0c-5.09,0-10.07-.96-14.95-2.86-4.88-1.91-9.58-4.91-14.1-9.02l12.51-13.15c3.11,2.55,5.97,4.42,8.59,5.62,2.62,1.2,5.27,1.8,7.95,1.8h38.39l-8.7,8.48v-49.63c0-2.54-.28-6.11-.85-10.71-.57-4.59-1.31-9.83-2.23-15.69-.92-5.86-1.95-11.84-3.08-17.92l19.3-3.18c.99,5.09,1.98,10.68,2.97,16.75,.99,6.08,1.8,11.88,2.44,17.39,.64,5.51,.96,9.96,.96,13.36v58.75h-49.2Zm49.2,0v-17.6h22.69v17.6h-22.69Zm22.69,0v-17.6c.85,0,1.55,.21,2.12,.64,.56,.43,.99,.99,1.27,1.7,.28,.71,.49,1.59,.64,2.65,.14,1.06,.21,2.3,.21,3.71,0,1.27-.07,2.47-.21,3.61-.14,1.13-.35,2.09-.64,2.86-.28,.78-.71,1.38-1.27,1.8-.57,.43-1.27,.64-2.12,.64Z"/>
        <path class="cls-1" d="M260.43,964.65c-.85,0-1.55-.21-2.12-.64-.56-.42-.99-1.02-1.27-1.8-.28-.77-.49-1.73-.64-2.86-.14-1.13-.21-2.34-.21-3.61,0-1.84,.11-3.39,.32-4.67,.21-1.27,.64-2.26,1.27-2.97,.63-.71,1.52-1.06,2.65-1.06v17.6Zm0,0v-17.6h53.02v17.6h-53.02Zm53.02,0v-17.6c.85,0,1.55,.21,2.12,.64,.56,.43,.99,.99,1.27,1.7,.28,.71,.49,1.59,.64,2.65,.14,1.06,.21,2.3,.21,3.71,0,1.27-.07,2.47-.21,3.61-.14,1.13-.35,2.09-.64,2.86-.29,.78-.71,1.38-1.27,1.8-.57,.43-1.27,.64-2.12,.64Z"/>
        <path class="cls-1" d="M313.45,964.65c-.85,0-1.55-.21-2.12-.64-.56-.42-.99-1.02-1.27-1.8-.28-.77-.49-1.73-.64-2.86-.14-1.13-.21-2.34-.21-3.61,0-1.84,.11-3.39,.32-4.67,.21-1.27,.64-2.26,1.27-2.97,.63-.71,1.52-1.06,2.65-1.06v17.6Zm0,0v-17.6h25.24v17.6h-25.24Zm25.24,0v-151.42h19.72v151.42h-19.72Zm19.72,0v-17.6h22.9v17.6h-22.9Zm22.9,0v-17.6c.71,0,1.34,.21,1.91,.64,.56,.43,.99,.99,1.27,1.7,.28,.71,.53,1.59,.74,2.65,.21,1.06,.32,2.3,.32,3.71,0,1.27-.11,2.47-.32,3.61-.21,1.13-.46,2.09-.74,2.86-.29,.78-.71,1.38-1.27,1.8-.57,.43-1.2,.64-1.91,.64Z"/>
        <path class="cls-1" d="M381.32,964.65c-.85,0-1.55-.21-2.12-.64-.56-.42-.99-1.02-1.27-1.8-.28-.77-.49-1.73-.64-2.86-.14-1.13-.21-2.34-.21-3.61,0-1.84,.11-3.39,.32-4.67,.21-1.27,.64-2.26,1.27-2.97,.63-.71,1.52-1.06,2.65-1.06v17.6Zm0,0v-17.6h53.02v17.6h-53.02Zm53.02,0v-17.6c.85,0,1.55,.21,2.12,.64,.56,.43,.99,.99,1.27,1.7,.28,.71,.49,1.59,.64,2.65,.14,1.06,.21,2.3,.21,3.71,0,1.27-.07,2.47-.21,3.61-.14,1.13-.35,2.09-.64,2.86-.29,.78-.71,1.38-1.27,1.8-.57,.43-1.27,.64-2.12,.64Z"/>
        <path class="cls-1" d="M434.34,964.65c-.85,0-1.55-.21-2.12-.64-.56-.42-.99-1.02-1.27-1.8-.28-.77-.49-1.73-.64-2.86-.14-1.13-.21-2.34-.21-3.61,0-1.84,.11-3.39,.32-4.67,.21-1.27,.64-2.26,1.27-2.97,.63-.71,1.52-1.06,2.65-1.06v17.6Zm0,0v-17.6h32.87l-10.18,8.06v-96.71h19.94v106.25h-42.63Zm22.69,40.08v-20.57h19.94v20.57h-19.94Z"/>
        <path class="cls-1" d="M597.21,964.65c-12.3,0-21.99-1.87-29.05-5.62-7.07-3.75-12.13-9.55-15.17-17.39-3.04-7.84-4.56-17.78-4.56-29.8s1.52-22.2,4.56-30.11c3.04-7.92,8.09-13.79,15.17-17.6,7.07-3.82,16.75-5.73,29.05-5.73h44.96v96.49h-19.72v-85.68l8.06,7h-33.3c-7.49,0-13.36,.89-17.6,2.65-4.24,1.77-7.21,5.23-8.91,10.39-1.7,5.16-2.54,12.69-2.54,22.58s.85,17.15,2.54,22.16c1.7,5.02,4.63,8.45,8.8,10.29,4.17,1.84,10.07,2.75,17.71,2.75h67.65v17.6h-67.65Zm-23.75-125.34v-20.57h19.51v20.57h-19.51Zm31.6,0v-20.57h19.51v20.57h-19.51Zm59.81,125.34v-17.6c.85,0,1.55,.21,2.12,.64,.56,.43,.99,.99,1.27,1.7,.28,.71,.49,1.59,.64,2.65,.14,1.06,.21,2.3,.21,3.71,0,1.27-.07,2.47-.21,3.61-.14,1.13-.35,2.09-.64,2.86-.28,.78-.71,1.38-1.27,1.8-.57,.43-1.27,.64-2.12,.64Z"/>
        <path class="cls-1" d="M664.86,964.65c-.85,0-1.55-.21-2.12-.64-.56-.42-.99-1.02-1.27-1.8-.28-.77-.49-1.73-.64-2.86-.14-1.13-.21-2.34-.21-3.61,0-1.84,.11-3.39,.32-4.67,.21-1.27,.64-2.26,1.27-2.97,.63-.71,1.52-1.06,2.65-1.06v17.6Zm0,0v-17.6h53.02v17.6h-53.02Zm53.02,0v-17.6c.85,0,1.55,.21,2.12,.64,.56,.43,.99,.99,1.27,1.7,.28,.71,.49,1.59,.64,2.65,.14,1.06,.21,2.3,.21,3.71,0,1.27-.07,2.47-.21,3.61-.14,1.13-.35,2.09-.64,2.86-.29,.78-.71,1.38-1.27,1.8-.57,.43-1.27,.64-2.12,.64Z"/>
        <path class="cls-1" d="M717.88,964.65c-.85,0-1.55-.21-2.12-.64-.56-.42-.99-1.02-1.27-1.8-.28-.77-.49-1.73-.64-2.86-.14-1.13-.21-2.34-.21-3.61,0-1.84,.11-3.39,.32-4.67s.64-2.26,1.27-2.97c.63-.71,1.52-1.06,2.65-1.06v17.6Zm0,0v-17.6h36.05l-10.18,8.06v-96.71h19.72v106.25h-45.6Zm8.27,40.08v-20.57h19.51v20.57h-19.51Zm31.6,0v-20.57h19.51v20.57h-19.51Z"/>
        <path class="cls-1" d="M800.17,964.65v-151.42h19.72v151.42h-19.72Zm19.72,0v-17.6h25.45v17.6h-25.45Zm25.45,0v-17.6c.71,0,1.34,.21,1.91,.64,.56,.43,.99,.99,1.27,1.7,.28,.71,.53,1.59,.74,2.65,.21,1.06,.32,2.3,.32,3.71,0,1.27-.11,2.47-.32,3.61-.21,1.13-.46,2.09-.74,2.86-.28,.78-.71,1.38-1.27,1.8-.57,.43-1.2,.64-1.91,.64Z"/>
        <path class="cls-1" d="M845.34,964.65c-.85,0-1.55-.21-2.12-.64-.56-.42-.99-1.02-1.27-1.8-.28-.77-.49-1.73-.64-2.86-.14-1.13-.21-2.34-.21-3.61,0-1.84,.11-3.39,.32-4.67,.21-1.27,.64-2.26,1.27-2.97,.63-.71,1.52-1.06,2.65-1.06v17.6Zm0,0v-17.6h53.02v17.6h-53.02Zm53.02,0v-17.6c.85,0,1.55,.21,2.12,.64,.56,.43,.99,.99,1.27,1.7,.28,.71,.49,1.59,.64,2.65,.14,1.06,.21,2.3,.21,3.71,0,1.27-.07,2.47-.21,3.61-.14,1.13-.36,2.09-.64,2.86-.29,.78-.71,1.38-1.27,1.8-.57,.43-1.27,.64-2.12,.64Z"/>
        <path class="cls-1" d="M898.36,964.65c-.85,0-1.55-.21-2.12-.64-.56-.42-.99-1.02-1.27-1.8-.28-.77-.49-1.73-.64-2.86-.14-1.13-.21-2.34-.21-3.61,0-1.84,.1-3.39,.32-4.67,.21-1.27,.64-2.26,1.27-2.97,.63-.71,1.52-1.06,2.65-1.06v17.6Zm0,0v-17.6h106.89v17.6h-106.89Zm44.32-1.48c-7.49-6.5-13.22-13.85-17.17-22.06-3.96-8.2-5.94-16.89-5.94-26.08,0-8.2,1.48-15.76,4.45-22.69,2.97-6.92,6.97-12.94,11.99-18.03,5.02-5.09,10.99-9.01,17.92-11.77,6.93-2.76,14.28-4.13,22.06-4.13,4.1,0,8.51,.43,13.26,1.27,4.73,.85,9.29,2.05,13.68,3.61l-6.57,16.75c-3.39-1.27-6.78-2.22-10.18-2.86-3.39-.64-6.65-.96-9.76-.96-7.21,0-13.61,1.66-19.19,4.98-5.58,3.33-9.93,7.89-13.04,13.68-3.11,5.8-4.67,12.44-4.67,19.94,0,6.93,1.41,13.4,4.24,19.4,2.83,6.01,6.93,11.35,12.3,16.01l-13.36,12.94Z"/>
        <path class="cls-1" d="M1031.55,964.65v-17.6h78.47l-15.06,13.36v-43.47c0-10.32-1.17-18.45-3.5-24.39-2.33-5.94-6.11-10.14-11.35-12.62-5.23-2.47-12.3-3.71-21.21-3.71h-17.18v-17.82h17.18c11.73,0,21.77,1.88,30.12,5.62,8.34,3.75,14.7,9.9,19.08,18.45,4.38,8.56,6.57,20.04,6.57,34.46v47.72h-83.13Z"/>
      </g>
      <g>
        <path class="cls-1" d="M15.97,1212.51v-140.95h51.35c10.5,0,19.26,1.64,26.29,4.91,7.02,3.28,12.58,7.91,16.67,13.91,4.09,6,6.99,13.19,8.69,21.58,1.7,8.39,2.56,17.7,2.56,27.93s-.82,19.94-2.45,28.74c-1.64,8.8-4.5,16.5-8.59,23.12-4.09,6.62-9.61,11.73-16.57,15.35-6.96,3.61-15.75,5.42-26.39,5.42H15.97Zm19.64-16.98h31.5c7.09,0,12.85-1.5,17.28-4.5,4.43-3,7.88-7.09,10.33-12.27s4.16-11.08,5.11-17.7c.95-6.61,1.43-13.67,1.43-21.17s-.48-14.15-1.43-20.35c-.96-6.21-2.66-11.63-5.11-16.27-2.45-4.63-5.9-8.21-10.33-10.74-4.43-2.52-10.2-3.78-17.28-3.78h-31.5v106.78Z"/>
        <path class="cls-1" d="M147.92,1212.51v-140.95h19.64v140.95h-19.64Z"/>
        <path class="cls-1" d="M199.67,1212.51v-140.95h88.37v16.98h-68.73v44.19h56.46v16.57h-56.46v46.23h68.73v16.98h-88.37Z"/>
        <path class="cls-1" d="M300.93,1212.51l37.85-140.95h39.07l37.85,140.95h-19.84l-9.2-33.75h-56.87l-9.2,33.75h-19.64Zm32.73-50.53h49.3l-19.64-74.05h-10.02l-19.64,74.05Z"/>
        <path class="cls-1" d="M448.83,1212.51v-57.69l-44.39-83.26h21.69l32.32,63.01,32.53-63.01h21.68l-44.19,83.26v57.69h-19.64Z"/>
        <path class="cls-1" d="M501.2,1212.51l37.85-140.95h39.07l37.85,140.95h-19.84l-9.2-33.75h-56.87l-9.2,33.75h-19.64Zm32.73-50.53h49.3l-19.64-74.05h-10.02l-19.64,74.05Z"/>
        <path class="cls-1" d="M680.81,1212.51v-140.95h51.96c10.77,0,19.64,1.67,26.59,5.01,6.96,3.34,12.14,8.42,15.55,15.24,3.41,6.82,5.11,15.61,5.11,26.39s-1.71,19.57-5.11,26.8c-3.41,7.23-8.59,12.68-15.55,16.37s-15.82,5.52-26.59,5.52h-32.32v45.62h-19.64Zm19.64-62.19h32.12c9.68,0,16.67-2.76,20.97-8.28,4.3-5.52,6.44-13.47,6.44-23.83s-2.15-17.93-6.44-22.71c-4.3-4.78-11.29-7.16-20.97-7.16h-32.12v61.98Z"/>
        <path class="cls-1" d="M802.32,1212.51v-140.95h19.64v123.76h59.94v17.18h-79.58Z"/>
        <path class="cls-1" d="M948.18,1214.56c-10.64,0-19.74-1.5-27.31-4.5-7.57-3-13.33-7.84-17.28-14.52-3.96-6.68-5.93-15.61-5.93-26.8v-97.17h19.64v97.78c0,9.96,2.73,17.15,8.18,21.58,5.45,4.43,13.02,6.65,22.71,6.65,10.23,0,18.07-2.21,23.53-6.65,5.45-4.43,8.18-11.63,8.18-21.58v-97.78h19.64v97.17c0,10.91-1.98,19.78-5.93,26.59-3.96,6.82-9.75,11.73-17.39,14.73-7.64,3-16.98,4.5-28.03,4.5Z"/>
        <path class="cls-1" d="M1071.12,1214.56c-4.36,0-9.38-.27-15.03-.82-5.66-.54-11.22-1.23-16.67-2.04-5.46-.82-10.23-1.5-14.32-2.05l1.64-15.96c3.95,.41,8.63,.92,14.01,1.53,5.38,.61,10.67,1.12,15.85,1.53,5.18,.41,9.62,.61,13.3,.61,6.27,0,11.46-.92,15.55-2.76,4.09-1.84,7.16-4.6,9.2-8.28,2.04-3.68,3.07-8.45,3.07-14.32,0-4.77-.92-8.56-2.76-11.35-1.84-2.79-4.95-5.04-9.31-6.75-4.36-1.7-10.23-3.24-17.59-4.6-7.5-1.5-14.05-3.24-19.64-5.22-5.6-1.98-10.23-4.46-13.91-7.47-3.68-3-6.38-6.78-8.08-11.35-1.71-4.57-2.56-10.19-2.56-16.88,0-9.55,1.88-17.18,5.63-22.91,3.75-5.73,9.14-9.88,16.16-12.48,7.02-2.59,15.24-3.89,24.65-3.89,4.22,0,9.03,.24,14.42,.72,5.38,.48,10.7,1.06,15.96,1.74,5.25,.69,9.78,1.37,13.6,2.05l-1.43,16.16c-3.96-.54-8.56-1.05-13.81-1.53-5.25-.48-10.33-.92-15.24-1.33-4.91-.41-8.87-.61-11.87-.61-6.27,0-11.49,.75-15.65,2.25-4.16,1.5-7.29,3.75-9.41,6.75-2.12,3-3.17,6.89-3.17,11.66,0,5.46,1.02,9.62,3.07,12.48s5.45,5.11,10.23,6.75c4.77,1.64,11.05,3.41,18.82,5.32,7.36,1.64,13.67,3.41,18.92,5.32,5.25,1.91,9.58,4.3,12.99,7.16,3.41,2.87,5.9,6.41,7.47,10.64,1.56,4.23,2.35,9.55,2.35,15.96,0,10.51-1.88,18.96-5.62,25.37-3.75,6.41-9.11,11.11-16.06,14.11-6.96,3-15.21,4.5-24.75,4.5Z"/>
      </g>
      <path class="cls-1" d="M615.02,0H313.61V157.1h302.45c87.94,0,161.93,69.25,164,157.17,2.13,90.55-70.9,164.88-160.98,164.88h-24.87c-43.38,0-78.55,35.17-78.55,78.55h0c0,43.38,35.17,78.55,78.55,78.55h24.87c176.42,0,319.78-144.35,318.11-321.19C935.52,139.89,790.18,0,615.02,0Z"/>
      <path class="cls-1" d="M313.61,239.57h320.99c29.73,0,53.87,24.14,53.87,53.87v49.37c0,29.73-24.14,53.87-53.87,53.87H313.61V239.57h0Z"/>
      <circle class="cls-1" cx="392.16" cy="557.69" r="78.55"/>
    </g>
  </g>
</svg>