<svg width="12" height="14" viewBox="0 0 12 14" fill="none" xmlns="http://www.w3.org/2000/svg">
<g clip-path="url(#clip0_186_3237)">
<path d="M5.592 0H5.664V6.76207L6.048 6.6619L6.96 6.46154H7.056V1.92844L7.416 1.52773L7.728 1.22719L8.16 0.90161L8.448 0.726297H8.472V6.13596L9.336 5.9356L11.928 5.35957H12V5.58497L11.904 6.08587L11.76 6.58676L11.616 6.96243L11.4 7.03757L8.568 7.66368H8.472V9.14132L10.488 8.69052L11.952 8.36494H12V8.59034L11.88 9.21646L11.712 9.7424L11.592 9.99284L11.208 10.093L8.592 10.6691L7.128 10.9946H7.056V7.98927L6.432 8.13953L5.736 8.2898H5.664V10.068L5.568 10.3435L5.184 10.9445L4.776 11.5707L4.632 11.746L4.392 11.9213L4.2 12.0215L3.696 12.1467L0.648 12.8229L0.096 12.9481H0V12.7227L0.096 12.1968L0.24 11.7209L0.384 11.3453L0.504 11.2952L3.672 10.5939L4.128 10.4937H4.224V8.61538L3.936 8.69052L0.888 9.36673L0.648 9.39177L0.72 8.84079L0.864 8.2898L1.008 7.88909L1.08 7.76386L4.128 7.08766H4.224V1.20215L4.584 0.801431L4.896 0.500894L5.28 0.200358L5.592 0Z" fill="#00B4FF"/>
<path d="M11.976 11.3704H12V11.5958L11.88 12.2219L11.688 12.823L11.616 12.9983L11.232 13.0984L8.28003 13.7496L7.15203 14.0001H7.05603V13.7997L7.17603 13.1736L7.36803 12.5725L7.46403 12.3722L10.632 11.6709L11.976 11.3704Z" fill="#00B4FF"/>
</g>
<defs>
<clipPath id="clip0_186_3237">
<rect width="12" height="14" fill="white"/>
</clipPath>
</defs>
</svg>
