<svg width="12" height="12" viewBox="0 0 12 12" fill="none" xmlns="http://www.w3.org/2000/svg">
<path d="M11.6166 10.9301L8.76059 7.95969C9.49492 7.08675 9.89727 5.98841 9.89727 4.845C9.89727 2.17351 7.72376 0 5.05227 0C2.38078 0 0.207275 2.17351 0.207275 4.845C0.207275 7.51648 2.38078 9.68999 5.05227 9.68999C6.05518 9.68999 7.01091 9.38749 7.82803 8.81326L10.7057 11.8062C10.826 11.9311 10.9878 12 11.1612 12C11.3253 12 11.4809 11.9374 11.5991 11.8237C11.8502 11.5821 11.8582 11.1814 11.6166 10.9301ZM5.05227 1.26391C7.02692 1.26391 8.63335 2.87034 8.63335 4.845C8.63335 6.81965 7.02692 8.42608 5.05227 8.42608C3.07762 8.42608 1.47119 6.81965 1.47119 4.845C1.47119 2.87034 3.07762 1.26391 5.05227 1.26391Z" fill="white"/>
</svg>
