<svg width="36" height="36" viewBox="0 0 36 36" fill="none" xmlns="http://www.w3.org/2000/svg">
<path d="M15.7919 9.70096C15.3506 9.26359 14.6383 9.26677 14.201 9.70806C13.7636 10.1494 13.7668 10.8617 14.2081 11.299L16.8525 13.92C17.9258 14.9837 18.662 15.7158 19.1601 16.3361C19.644 16.9386 19.81 17.3256 19.8542 17.6722C19.8819 17.8899 19.8819 18.1101 19.8542 18.3278C19.81 18.6744 19.644 19.0614 19.1601 19.6639C18.662 20.2842 17.9258 21.0163 16.8525 22.08L14.2081 24.701C13.7668 25.1383 13.7636 25.8506 14.201 26.2919C14.6383 26.7332 15.3506 26.7364 15.7919 26.299L18.484 23.6309C19.498 22.6259 20.3267 21.8046 20.9144 21.0728C21.5256 20.3118 21.968 19.5394 22.0861 18.6122C22.138 18.2057 22.138 17.7943 22.0861 17.3878C21.968 16.4606 21.5256 15.6882 20.9144 14.9272C20.3267 14.1954 19.498 13.3741 18.484 12.3691L15.7919 9.70096Z" fill="white"/>
</svg>
