<svg width="157" height="157" viewBox="0 0 157 157" fill="none" xmlns="http://www.w3.org/2000/svg">
<path d="M60.0748 137.375L62.0373 139.991C70.8686 151.766 88.5311 151.766 97.3623 139.991L99.3248 137.375M28.5625 101.72L29.2386 103.114C33.5807 112.066 42.6555 117.75 52.6047 117.75H106.383C114.908 117.75 122.843 113.394 127.421 106.201C133.883 96.0482 132.171 82.7287 123.353 74.5389L123.066 74.2722C117.078 68.7118 114.13 60.6111 115.144 52.503L115.566 49.1214C117.958 29.9853 103.037 13.083 83.7524 13.083H72.6125C53.351 13.083 38.4481 29.9647 40.8372 49.0775L41.3564 53.2304C42.3124 60.8784 39.5187 68.5177 33.8544 73.7447C26.1174 80.8843 23.9679 92.2478 28.5625 101.72Z" stroke="#666565" stroke-width="3.5" stroke-linecap="round"/>
</svg>
