<svg width="25" height="24" viewBox="0 0 25 24" fill="none" xmlns="http://www.w3.org/2000/svg">
<path d="M20.3361 16.9064C20.7793 12.6469 20.7793 8.35292 20.3361 4.09343C20.1975 2.76112 18.6614 2.08623 17.5863 2.88535L13.4827 5.93576C12.1891 6.89732 10.6202 7.41658 9.0084 7.41658H5.1792C4.62691 7.41658 4.1792 7.86429 4.1792 8.41658V12.5832C4.1792 13.1355 4.62691 13.5832 5.1792 13.5832L9.00839 13.5832C10.6202 13.5832 12.1891 14.1025 13.4827 15.0641L17.5863 18.1145C18.6614 18.9136 20.1975 18.2387 20.3361 16.9064Z" fill="#B9B9B9"/>
<path d="M9.59262 15.8019C9.65006 15.5774 9.60055 15.339 9.45848 15.156C9.3164 14.973 9.09773 14.8659 8.86604 14.8659L6.86604 14.8659C6.58196 14.8659 6.32226 15.0264 6.19522 15.2805L5.19522 17.2805C5.02444 17.6221 5.13756 18.0374 5.45794 18.2452L7.59191 19.6292C7.79452 19.7606 8.048 19.7864 8.27293 19.6985C8.49786 19.6106 8.66672 19.4198 8.72659 19.1859L9.59262 15.8019Z" fill="#B9B9B9"/>
</svg>
