<svg width="20" height="22" viewBox="0 0 20 22" fill="none" xmlns="http://www.w3.org/2000/svg">
<path fill-rule="evenodd" clip-rule="evenodd" d="M4.77141 3.04167C4.77141 1.49987 6.02129 0.25 7.56308 0.25H12.7291C14.1098 0.25 15.2291 1.36929 15.2291 2.75C15.2291 3.30228 15.6768 3.75 16.2291 3.75H16.8184C18.4033 3.75 19.7972 4.97999 19.7326 6.66561C19.6498 8.82667 19.2301 12.2931 17.5468 15.3608C17.0905 16.1923 16.4811 17.0092 15.8223 17.7703L15.7727 17.8276C14.825 18.9226 14.0349 19.8356 13.1854 20.4579C12.2717 21.1273 11.2965 21.4607 10.0003 21.4607C8.70396 21.4607 7.72878 21.1273 6.81509 20.4579C5.96562 19.8356 5.17546 18.9226 4.22779 17.8276L4.1782 17.7703C3.51943 17.0092 2.91004 16.1923 2.45375 15.3608C0.824595 12.3918 0.377942 9.25749 0.276419 7.24648C0.190911 5.55273 1.59483 4.33333 3.17088 4.33333H3.47975C4.19312 4.33333 4.77141 3.75503 4.77141 3.04167ZM13.5842 9.47057C13.8441 9.14804 13.7933 8.67589 13.4708 8.416C13.1482 8.15611 12.6761 8.20689 12.4162 8.52943L10.3947 11.0382C9.9796 11.5533 9.71769 11.8755 9.49973 12.0791C9.3973 12.1747 9.33187 12.2173 9.29427 12.2361C9.26628 12.2501 9.25628 12.25 9.25091 12.25H9.24946C9.24409 12.25 9.23409 12.2501 9.20609 12.2361C9.16849 12.2173 9.10306 12.1747 9.00064 12.0791C8.78267 11.8755 8.52077 11.5533 8.10569 11.0382L7.58419 10.391C7.3243 10.0685 6.85215 10.0177 6.52961 10.2776C6.20707 10.5375 6.15629 11.0096 6.41618 11.3321L6.97025 12.0198C7.34276 12.4822 7.67141 12.8901 7.97683 13.1753C8.30475 13.4816 8.71244 13.75 9.25018 13.75C9.78792 13.75 10.1956 13.4816 10.5235 13.1753C10.8289 12.8901 11.1576 12.4822 11.5301 12.0198L13.5842 9.47057Z" fill="#00B4FF"/>
</svg>
