<svg width="18" height="17" viewBox="0 0 18 17" fill="none" xmlns="http://www.w3.org/2000/svg">
<path fill-rule="evenodd" clip-rule="evenodd" d="M5.14537 0.0201771C4.84076 -1.23885e-05 4.46972 -6.63702e-06 4.02527 2.53396e-07H3.97475C3.53029 -6.63702e-06 3.15925 -1.23885e-05 2.85464 0.0201771C2.53754 0.0411945 2.23801 0.0865048 1.94762 0.203351C1.27379 0.474485 0.73844 0.994543 0.459332 1.64912C0.339049 1.93121 0.292406 2.22218 0.270771 2.53022C0.249987 2.82612 0.249993 3.18656 0.25 3.61831V3.66739C0.249993 4.09914 0.249987 4.45959 0.270771 4.7555C0.292406 5.06354 0.339049 5.35451 0.459332 5.6366C0.73844 6.29117 1.27379 6.81123 1.94762 7.08237C2.23801 7.19921 2.53754 7.24452 2.85464 7.26554C3.15925 7.28573 3.53028 7.28572 3.97474 7.28572H4.02526C4.46972 7.28572 4.84075 7.28573 5.14537 7.26554C5.46247 7.24452 5.76199 7.19921 6.05238 7.08237C6.72621 6.81123 7.26156 6.29117 7.54067 5.6366C7.66095 5.35451 7.7076 5.06354 7.72923 4.7555C7.75001 4.45959 7.75001 4.09915 7.75 3.66739V3.61832C7.75001 3.18656 7.75001 2.82613 7.72923 2.53022C7.7076 2.22218 7.66095 1.93121 7.54067 1.64912C7.26156 0.994543 6.72621 0.474485 6.05238 0.203351C5.76199 0.0865048 5.46247 0.0411945 5.14537 0.0201771ZM2.52165 1.54958C2.5988 1.51853 2.71602 1.4899 2.95674 1.47394C3.20421 1.45754 3.5238 1.45714 4 1.45714C4.4762 1.45714 4.7958 1.45754 5.04326 1.47394C5.28399 1.4899 5.4012 1.51853 5.47836 1.54958C5.78464 1.67282 6.02798 1.90921 6.15485 2.20674C6.18681 2.28169 6.21629 2.39556 6.23271 2.62941C6.24959 2.8698 6.25 3.18026 6.25 3.64286C6.25 4.10546 6.24959 4.41592 6.23271 4.65631C6.21629 4.89016 6.18681 5.00402 6.15485 5.07897C6.02798 5.37651 5.78464 5.6129 5.47836 5.73614C5.4012 5.76719 5.28399 5.79582 5.04326 5.81178C4.7958 5.82818 4.4762 5.82857 4 5.82857C3.5238 5.82857 3.20421 5.82818 2.95674 5.81178C2.71602 5.79582 2.5988 5.76719 2.52165 5.73614C2.21536 5.6129 1.97202 5.37651 1.84515 5.07897C1.81319 5.00402 1.78372 4.89016 1.76729 4.65631C1.75041 4.41592 1.75 4.10546 1.75 3.64286C1.75 3.18026 1.75041 2.8698 1.76729 2.62941C1.78372 2.39556 1.81319 2.28169 1.84515 2.20674C1.97202 1.90921 2.21536 1.67282 2.52165 1.54958Z" fill="#B9B9B9"/>
<path fill-rule="evenodd" clip-rule="evenodd" d="M15.1454 0.0201771C14.8408 -1.23885e-05 14.4697 -6.63702e-06 14.0253 2.53396e-07H13.9748C13.5303 -6.63702e-06 13.1592 -1.23885e-05 12.8546 0.0201771C12.5375 0.0411945 12.238 0.0865048 11.9476 0.203351C11.2738 0.474485 10.7384 0.994542 10.4593 1.64912C10.339 1.93121 10.2924 2.22218 10.2708 2.53022C10.25 2.82613 10.25 3.18656 10.25 3.61832V3.66739C10.25 4.09915 10.25 4.45959 10.2708 4.7555C10.2924 5.06354 10.339 5.35451 10.4593 5.6366C10.7384 6.29117 11.2738 6.81123 11.9476 7.08237C12.238 7.19921 12.5375 7.24452 12.8546 7.26554C13.1592 7.28573 13.5303 7.28572 13.9747 7.28572H14.0253C14.4697 7.28572 14.8408 7.28573 15.1454 7.26554C15.4625 7.24452 15.762 7.19921 16.0524 7.08237C16.7262 6.81123 17.2616 6.29117 17.5407 5.6366C17.661 5.35451 17.7076 5.06354 17.7292 4.7555C17.75 4.45959 17.75 4.09915 17.75 3.66739V3.61832C17.75 3.18656 17.75 2.82613 17.7292 2.53022C17.7076 2.22218 17.661 1.93121 17.5407 1.64912C17.2616 0.994542 16.7262 0.474485 16.0524 0.203351C15.762 0.0865048 15.4625 0.0411945 15.1454 0.0201771ZM12.5216 1.54958C12.5988 1.51853 12.716 1.4899 12.9567 1.47394C13.2042 1.45754 13.5238 1.45714 14 1.45714C14.4762 1.45714 14.7958 1.45754 15.0433 1.47394C15.284 1.4899 15.4012 1.51853 15.4784 1.54958C15.7846 1.67282 16.028 1.90921 16.1549 2.20674C16.1868 2.28169 16.2163 2.39556 16.2327 2.62941C16.2496 2.8698 16.25 3.18026 16.25 3.64286C16.25 4.10546 16.2496 4.41592 16.2327 4.65631C16.2163 4.89016 16.1868 5.00402 16.1549 5.07897C16.028 5.37651 15.7846 5.6129 15.4784 5.73614C15.4012 5.76719 15.284 5.79582 15.0433 5.81178C14.7958 5.82818 14.4762 5.82857 14 5.82857C13.5238 5.82857 13.2042 5.82818 12.9567 5.81178C12.716 5.79582 12.5988 5.76719 12.5216 5.73614C12.2154 5.6129 11.972 5.37651 11.8452 5.07897C11.8132 5.00402 11.7837 4.89016 11.7673 4.65631C11.7504 4.41592 11.75 4.10546 11.75 3.64286C11.75 3.18026 11.7504 2.8698 11.7673 2.62941C11.7837 2.39556 11.8132 2.28169 11.8452 2.20674C11.972 1.90921 12.2154 1.67282 12.5216 1.54958Z" fill="#B9B9B9"/>
<path fill-rule="evenodd" clip-rule="evenodd" d="M5.14537 9.73446C4.84075 9.71427 4.46972 9.71428 4.02526 9.71429H3.97474C3.53028 9.71428 3.15925 9.71427 2.85464 9.73446C2.53754 9.75548 2.23801 9.80079 1.94762 9.91764C1.27379 10.1888 0.73844 10.7088 0.459332 11.3634C0.339049 11.6455 0.292406 11.9365 0.270771 12.2445C0.249987 12.5404 0.249993 12.9008 0.25 13.3326V13.3817C0.249993 13.8134 0.249987 14.1739 0.270771 14.4698C0.292406 14.7778 0.339049 15.0688 0.459332 15.3509C0.73844 16.0055 1.27379 16.5255 1.94762 16.7966C2.23801 16.9135 2.53754 16.9588 2.85464 16.9798C3.15925 17 3.53028 17 3.97474 17H4.02526C4.46972 17 4.84075 17 5.14537 16.9798C5.46247 16.9588 5.76199 16.9135 6.05238 16.7966C6.72621 16.5255 7.26156 16.0055 7.54067 15.3509C7.66095 15.0688 7.7076 14.7778 7.72923 14.4698C7.75001 14.1739 7.75001 13.8134 7.75 13.3817V13.3326C7.75001 12.9008 7.75001 12.5404 7.72923 12.2445C7.7076 11.9365 7.66095 11.6455 7.54067 11.3634C7.26156 10.7088 6.72621 10.1888 6.05238 9.91764C5.76199 9.80079 5.46247 9.75548 5.14537 9.73446ZM2.52165 11.2639C2.5988 11.2328 2.71602 11.2042 2.95674 11.1882C3.20421 11.1718 3.5238 11.1714 4 11.1714C4.4762 11.1714 4.7958 11.1718 5.04326 11.1882C5.28399 11.2042 5.4012 11.2328 5.47836 11.2639C5.78464 11.3871 6.02798 11.6235 6.15485 11.921C6.18681 11.996 6.21629 12.1098 6.23271 12.3437C6.24959 12.5841 6.25 12.8945 6.25 13.3571C6.25 13.8197 6.24959 14.1302 6.23271 14.3706C6.21629 14.6044 6.18681 14.7183 6.15485 14.7933C6.02798 15.0908 5.78464 15.3272 5.47836 15.4504C5.4012 15.4815 5.28399 15.5101 5.04326 15.5261C4.7958 15.5425 4.4762 15.5429 4 15.5429C3.5238 15.5429 3.20421 15.5425 2.95674 15.5261C2.71602 15.5101 2.5988 15.4815 2.52165 15.4504C2.21536 15.3272 1.97202 15.0908 1.84515 14.7933C1.81319 14.7183 1.78372 14.6044 1.76729 14.3706C1.75041 14.1302 1.75 13.8197 1.75 13.3571C1.75 12.8945 1.75041 12.5841 1.76729 12.3437C1.78372 12.1098 1.81319 11.996 1.84515 11.921C1.97202 11.6235 2.21536 11.3871 2.52165 11.2639Z" fill="#B9B9B9"/>
<path fill-rule="evenodd" clip-rule="evenodd" d="M15.1454 9.73446C14.8408 9.71427 14.4697 9.71428 14.0253 9.71429H13.9747C13.5303 9.71428 13.1592 9.71427 12.8546 9.73446C12.5375 9.75548 12.238 9.80079 11.9476 9.91764C11.2738 10.1888 10.7384 10.7088 10.4593 11.3634C10.339 11.6455 10.2924 11.9365 10.2708 12.2445C10.25 12.5404 10.25 12.9008 10.25 13.3326V13.3817C10.25 13.8134 10.25 14.1739 10.2708 14.4698C10.2924 14.7778 10.339 15.0688 10.4593 15.3509C10.7384 16.0055 11.2738 16.5255 11.9476 16.7966C12.238 16.9135 12.5375 16.9588 12.8546 16.9798C13.1592 17 13.5303 17 13.9747 17H14.0253C14.4697 17 14.8408 17 15.1454 16.9798C15.4625 16.9588 15.762 16.9135 16.0524 16.7966C16.7262 16.5255 17.2616 16.0055 17.5407 15.3509C17.661 15.0688 17.7076 14.7778 17.7292 14.4698C17.75 14.1739 17.75 13.8134 17.75 13.3817V13.3326C17.75 12.9008 17.75 12.5404 17.7292 12.2445C17.7076 11.9365 17.661 11.6455 17.5407 11.3634C17.2616 10.7088 16.7262 10.1888 16.0524 9.91764C15.762 9.80079 15.4625 9.75548 15.1454 9.73446ZM12.5216 11.2639C12.5988 11.2328 12.716 11.2042 12.9567 11.1882C13.2042 11.1718 13.5238 11.1714 14 11.1714C14.4762 11.1714 14.7958 11.1718 15.0433 11.1882C15.284 11.2042 15.4012 11.2328 15.4784 11.2639C15.7846 11.3871 16.028 11.6235 16.1549 11.921C16.1868 11.996 16.2163 12.1098 16.2327 12.3437C16.2496 12.5841 16.25 12.8945 16.25 13.3571C16.25 13.8197 16.2496 14.1302 16.2327 14.3706C16.2163 14.6044 16.1868 14.7183 16.1549 14.7933C16.028 15.0908 15.7846 15.3272 15.4784 15.4504C15.4012 15.4815 15.284 15.5101 15.0433 15.5261C14.7958 15.5425 14.4762 15.5429 14 15.5429C13.5238 15.5429 13.2042 15.5425 12.9567 15.5261C12.716 15.5101 12.5988 15.4815 12.5216 15.4504C12.2154 15.3272 11.972 15.0908 11.8452 14.7933C11.8132 14.7183 11.7837 14.6044 11.7673 14.3706C11.7504 14.1302 11.75 13.8197 11.75 13.3571C11.75 12.8945 11.7504 12.5841 11.7673 12.3437C11.7837 12.1098 11.8132 11.996 11.8452 11.921C11.972 11.6235 12.2154 11.3871 12.5216 11.2639Z" fill="#B9B9B9"/>
</svg>
