<svg width="18" height="21" viewBox="0 0 18 21" fill="none" xmlns="http://www.w3.org/2000/svg">
<path d="M13.1831 2.35196C12.3084 1.51769 11.1224 1 9.80286 1H8.09995C5.15552 1 2.87737 3.58064 3.24258 6.50234L3.32194 7.13719C3.46808 8.30631 3.04102 9.4741 2.17514 10.2731C0.99242 11.3645 0.663827 13.1016 1.36619 14.5496L1.46954 14.7627C2.13331 16.1311 3.52054 17 5.04144 17H13.2623C14.5656 17 15.7785 16.3342 16.4783 15.2347C17.4661 13.6826 17.2045 11.6465 15.8564 10.3945L15.8125 10.3538C15.5689 10.1275 15.3582 9.8738 15.1831 9.59985M5.18311 17L5.58311 17.6857C7.38311 20.7714 10.9831 20.7714 12.7831 17.6857L13.1831 17" stroke="#5D5C5C" stroke-width="1.5" stroke-linecap="round"/>
</svg>
