<svg width="8" height="8" viewBox="0 0 8 8" fill="none" xmlns="http://www.w3.org/2000/svg">
<g clip-path="url(#clip0_70_5156)">
<path d="M3.34234 0H3.38538V3.86404L3.6149 3.8068L4.16 3.69231H4.21738V1.10197L4.43255 0.872987L4.61903 0.701252L4.87724 0.515206L5.04938 0.415027H5.06372V3.50626L5.58014 3.39177L7.12938 3.06261H7.17241V3.19141L7.11503 3.47764L7.02897 3.76386L6.9429 3.97853L6.81379 4.02147L5.1211 4.37925H5.06372V5.22361L6.26869 4.96601L7.14372 4.77996H7.17241V4.90877L7.10069 5.26655L7.00028 5.56708L6.92855 5.7102L6.69903 5.76744L5.13545 6.0966L4.26041 6.28265H4.21738V4.56529L3.84441 4.65116L3.42841 4.73703H3.38538V5.75313L3.328 5.91055L3.09848 6.25402L2.85462 6.61181L2.76855 6.71199L2.6251 6.81216L2.51034 6.86941L2.2091 6.94097L0.38731 7.32737L0.0573793 7.39893H0V7.27012L0.0573793 6.96959L0.143448 6.69767L0.229517 6.48301L0.301241 6.45438L2.19476 6.05367L2.46731 5.99642H2.52469V4.92308L2.35255 4.96601L0.530759 5.35241L0.38731 5.36673L0.430345 5.05188L0.516414 4.73703L0.602483 4.50805L0.645517 4.43649L2.46731 4.05009H2.52469V0.686941L2.73986 0.457961L2.92634 0.286225L3.15586 0.11449L3.34234 0Z" fill="#666565"/>
<path d="M7.15798 6.49731H7.17232V6.62612L7.1006 6.9839L6.98584 7.32737L6.9428 7.42755L6.71329 7.48479L4.94887 7.85689L4.27466 8H4.21729V7.88551L4.28901 7.52773L4.40377 7.18426L4.46115 7.06977L6.35466 6.66905L7.15798 6.49731Z" fill="#666565"/>
</g>
<defs>
<clipPath id="clip0_70_5156">
<rect width="7.17241" height="8" fill="white"/>
</clipPath>
</defs>
</svg>
