<svg width="18" height="18" viewBox="0 0 18 18" fill="none" xmlns="http://www.w3.org/2000/svg">
<path d="M2.4375 3.75C2.4375 2.61091 3.36091 1.6875 4.5 1.6875C5.63909 1.6875 6.5625 2.61091 6.5625 3.75C6.5625 4.88909 5.63909 5.8125 4.5 5.8125C3.36091 5.8125 2.4375 4.88909 2.4375 3.75Z" fill="#C3C3C3"/>
<path d="M8.4375 3.75C8.4375 3.43934 8.68934 3.1875 9 3.1875L15 3.1875C15.3107 3.1875 15.5625 3.43934 15.5625 3.75C15.5625 4.06066 15.3107 4.3125 15 4.3125L9 4.3125C8.68934 4.3125 8.4375 4.06066 8.4375 3.75Z" fill="#C3C3C3"/>
<path d="M11.4375 9C11.4375 7.86091 12.3609 6.9375 13.5 6.9375C14.6391 6.9375 15.5625 7.86091 15.5625 9C15.5625 10.1391 14.6391 11.0625 13.5 11.0625C12.3609 11.0625 11.4375 10.1391 11.4375 9Z" fill="#C3C3C3"/>
<path d="M2.4375 9C2.4375 8.68934 2.68934 8.4375 3 8.4375L9 8.4375C9.31066 8.4375 9.5625 8.68934 9.5625 9C9.5625 9.31066 9.31066 9.5625 9 9.5625L3 9.5625C2.68934 9.5625 2.4375 9.31066 2.4375 9Z" fill="#C3C3C3"/>
<path d="M2.4375 14.25C2.4375 13.1109 3.36091 12.1875 4.5 12.1875C5.63909 12.1875 6.5625 13.1109 6.5625 14.25C6.5625 15.3891 5.63909 16.3125 4.5 16.3125C3.36091 16.3125 2.4375 15.3891 2.4375 14.25Z" fill="#C3C3C3"/>
<path d="M8.4375 14.25C8.4375 13.9393 8.68934 13.6875 9 13.6875H15C15.3107 13.6875 15.5625 13.9393 15.5625 14.25C15.5625 14.5607 15.3107 14.8125 15 14.8125H9C8.68934 14.8125 8.4375 14.5607 8.4375 14.25Z" fill="#C3C3C3"/>
</svg>
