<svg width="20" height="17" viewBox="0 0 20 17" fill="none" xmlns="http://www.w3.org/2000/svg">
<rect x="0.5" y="0.5" width="16" height="16" rx="3.5" stroke="#00B4FF"/>
<path d="M19.1604 3.07639C19.3924 2.79796 19.3548 2.38415 19.0764 2.15212C18.798 1.92009 18.3841 1.95771 18.1521 2.23615L13.4353 7.89636C12.4878 9.03333 11.8213 9.83069 11.2432 10.3527C10.6785 10.8626 10.2889 11.0246 9.90627 11.0246C9.52366 11.0246 9.134 10.8626 8.56937 10.3527C7.99125 9.83068 7.32473 9.03333 6.37725 7.89635L5.16041 6.43615C4.92839 6.15771 4.51458 6.12009 4.23615 6.35212C3.95771 6.58415 3.92009 6.99796 4.15212 7.27639L5.40273 8.77712C6.30859 9.86418 7.03404 10.7347 7.68973 11.3268C8.36703 11.9384 9.05939 12.3371 9.90627 12.3371C10.7531 12.3371 11.4455 11.9384 12.1228 11.3268C12.7785 10.7348 13.5039 9.8642 14.4098 8.77715L19.1604 3.07639Z" fill="#00B4FF"/>
</svg>
