<svg width="25" height="24" viewBox="0 0 25 24" fill="none" xmlns="http://www.w3.org/2000/svg">
<path fill-rule="evenodd" clip-rule="evenodd" d="M4.96447 15.4645C5.90215 14.5268 7.17392 14 8.5 14H16.5C17.8261 14 19.0979 14.5268 20.0355 15.4645C20.9732 16.4021 21.5 17.6739 21.5 19V21C21.5 21.5523 21.0523 22 20.5 22C19.9477 22 19.5 21.5523 19.5 21V19C19.5 18.2044 19.1839 17.4413 18.6213 16.8787C18.0587 16.3161 17.2956 16 16.5 16H8.5C7.70435 16 6.94129 16.3161 6.37868 16.8787C5.81607 17.4413 5.5 18.2044 5.5 19V21C5.5 21.5523 5.05228 22 4.5 22C3.94772 22 3.5 21.5523 3.5 21V19C3.5 17.6739 4.02678 16.4021 4.96447 15.4645Z" fill="#B9B9B9"/>
<path fill-rule="evenodd" clip-rule="evenodd" d="M12.5 4C10.8431 4 9.5 5.34315 9.5 7C9.5 8.65685 10.8431 10 12.5 10C14.1569 10 15.5 8.65685 15.5 7C15.5 5.34315 14.1569 4 12.5 4ZM7.5 7C7.5 4.23858 9.73858 2 12.5 2C15.2614 2 17.5 4.23858 17.5 7C17.5 9.76142 15.2614 12 12.5 12C9.73858 12 7.5 9.76142 7.5 7Z" fill="#B9B9B9"/>
</svg>
