<svg width="20" height="18" viewBox="0 0 20 18" fill="none" xmlns="http://www.w3.org/2000/svg">
<path fill-rule="evenodd" clip-rule="evenodd" d="M11.6007 1.14593C13.2743 0.084255 15.9773 -0.91968 18.3115 1.46071C23.8525 7.11136 14.3502 18 10 18C5.64988 18 -3.85249 7.11136 1.68853 1.46072C4.02272 -0.919653 6.72564 0.0842676 8.39929 1.14593C9.34498 1.74582 10.655 1.74582 11.6007 1.14593ZM5.78882 3.70109C6.17602 3.55395 6.37063 3.12078 6.22349 2.73358C6.07635 2.34638 5.64318 2.15178 5.25598 2.29891C4.68523 2.51581 4.13343 2.86843 3.61721 3.38024C2.96287 4.02899 2.52693 4.76568 2.2833 5.55572C2.16124 5.95154 2.38317 6.37137 2.77899 6.49343C3.17481 6.61548 3.59464 6.39356 3.7167 5.99774C3.88666 5.44658 4.19156 4.92308 4.67331 4.44544C5.05159 4.07039 5.42812 3.83816 5.78882 3.70109Z" fill="#00B4FF"/>
</svg>
