<svg width="14" height="14" viewBox="0 0 14 14" fill="none" xmlns="http://www.w3.org/2000/svg">
<path d="M4.30769 4.84615C4.30769 3.75575 5.19164 2.87179 6.28205 2.87179C7.37246 2.87179 8.25641 3.75575 8.25641 4.84615C8.25641 5.93656 7.37246 6.82051 6.28205 6.82051C5.19164 6.82051 4.30769 5.93656 4.30769 4.84615Z" fill="#B9B9B9"/>
<path fill-rule="evenodd" clip-rule="evenodd" d="M6.96751 9.5011e-08H7.03249C8.35103 -5.76764e-06 9.38459 -1.04262e-05 10.2046 0.0888305C11.0414 0.179492 11.7194 0.367822 12.2983 0.788417C12.6488 1.04304 12.957 1.35124 13.2116 1.70171C13.6322 2.28061 13.8205 2.95862 13.9112 3.79542C14 4.6154 14 5.64894 14 6.96744V7.00429C14 7.67508 14 8.26949 13.9891 8.79525C13.9571 10.3418 13.8361 11.4387 13.2116 12.2983C12.957 12.6488 12.6488 12.957 12.2983 13.2116C11.7194 13.6322 11.0414 13.8205 10.2046 13.9112C9.3846 14 8.35106 14 7.03256 14H6.9675C5.64899 14 4.6154 14 3.79542 13.9112C2.95862 13.8205 2.28061 13.6322 1.70171 13.2116C1.36396 12.9662 1.06547 12.6711 0.81635 12.3363C0.806967 12.3237 0.797656 12.311 0.788417 12.2983C0.367822 11.7194 0.179492 11.0414 0.0888305 10.2046C-1.04262e-05 9.38459 -5.76764e-06 8.35103 9.50111e-08 7.03249V6.96751C-5.76764e-06 5.64897 -1.04262e-05 4.61541 0.0888305 3.79542C0.179492 2.95862 0.367822 2.28061 0.788417 1.70171C1.04304 1.35124 1.35124 1.04304 1.70171 0.788417C2.28061 0.367822 2.95862 0.179492 3.79542 0.0888305C4.61541 -1.04262e-05 5.64897 -5.76764e-06 6.96751 9.5011e-08ZM3.91142 1.15949C3.16625 1.24022 2.69943 1.39468 2.33471 1.65967C2.07567 1.84787 1.84787 2.07567 1.65967 2.33471C1.39468 2.69943 1.24022 3.16625 1.15949 3.91142C1.07766 4.66666 1.07692 5.64195 1.07692 7C1.07692 8.35805 1.07766 9.33334 1.15949 10.0886C1.18836 10.3551 1.22667 10.586 1.27609 10.7894C1.47379 10.4093 1.63765 10.1295 1.8318 9.89057C2.59636 8.94949 3.73598 8.39212 4.94822 8.36637C5.40187 8.35674 5.88508 8.45344 6.67418 8.61135L6.76387 8.62929C6.88743 8.42466 6.9965 8.26054 7.11037 8.12043C8.48262 6.43191 10.9299 6.09833 12.704 7.35798C12.7748 7.40828 12.8469 7.46491 12.9229 7.52936C12.9231 7.35937 12.9231 7.18307 12.9231 7C12.9231 5.64195 12.9223 4.66666 12.8405 3.91142C12.7598 3.16625 12.6053 2.69943 12.3403 2.33471C12.1521 2.07567 11.9243 1.84787 11.6653 1.65967C11.3006 1.39468 10.8337 1.24022 10.0886 1.15949C9.33334 1.07766 8.35805 1.07692 7 1.07692C5.64195 1.07692 4.66666 1.07766 3.91142 1.15949Z" fill="#B9B9B9"/>
</svg>
