<svg width="24" height="24" viewBox="0 0 24 24" fill="none" xmlns="http://www.w3.org/2000/svg">
<path fill-rule="evenodd" clip-rule="evenodd" d="M6.77117 4.04167C6.77117 2.49987 8.02104 1.25 9.56284 1.25H14.7288C16.1096 1.25 17.2288 2.36929 17.2288 3.75C17.2288 4.30228 17.6766 4.75 18.2288 4.75H18.8182C20.403 4.75 21.7969 5.97999 21.7324 7.66561C21.6496 9.82667 21.2298 13.2931 19.5465 16.3608C19.0902 17.1923 18.4808 18.0092 17.8221 18.7703L17.7725 18.8276C16.8248 19.9226 16.0346 20.8356 15.1852 21.4579C14.2715 22.1273 13.2963 22.4607 12 22.4607C10.7037 22.4607 9.72853 22.1273 8.81485 21.4579C7.96537 20.8356 7.17522 19.9226 6.22755 18.8276L6.17795 18.7703C5.51919 18.0092 4.9098 17.1923 4.4535 16.3608C2.82435 13.3918 2.3777 10.2575 2.27617 8.24648C2.19067 6.55273 3.59458 5.33333 5.17064 5.33333H5.4795C6.19287 5.33333 6.77117 4.75503 6.77117 4.04167ZM15.5839 10.4706C15.8438 10.148 15.793 9.67589 15.4705 9.416C15.148 9.15611 14.6758 9.20689 14.4159 9.52943L12.3944 12.0382C11.9794 12.5533 11.7175 12.8755 11.4995 13.0791C11.3971 13.1747 11.3316 13.2173 11.294 13.2361C11.266 13.2501 11.256 13.25 11.2507 13.25H11.2492C11.2438 13.25 11.2338 13.2501 11.2058 13.2361C11.1682 13.2173 11.1028 13.1747 11.0004 13.0791C10.7824 12.8755 10.5205 12.5533 10.1054 12.0382L9.58394 11.391C9.32405 11.0685 8.8519 11.0177 8.52937 11.2776C8.20683 11.5375 8.15604 12.0096 8.41593 12.3321L8.97 13.0198C9.34251 13.4822 9.67117 13.8901 9.97658 14.1753C10.3045 14.4816 10.7122 14.75 11.2499 14.75C11.7877 14.75 12.1954 14.4816 12.5233 14.1753C12.8287 13.8901 13.1573 13.4822 13.5298 13.0198L15.5839 10.4706Z" fill="#00B4FF"/>
</svg>
