<svg width="24" height="24" viewBox="0 0 24 24" fill="none" xmlns="http://www.w3.org/2000/svg">
<path d="M9 20C9 21.1 8.1 22 7 22C5.9 22 5.01 21.1 5.01 20C5.01 18.9 5.9 18 7 18C8.1 18 9 18.9 9 20ZM17 18C15.9 18 15.01 18.9 15.01 20C15.01 21.1 15.9 22 17 22C18.1 22 19 21.1 19 20C19 18.9 18.1 18 17 18ZM17.396 13C17.851 12.9999 18.2923 12.8447 18.6472 12.56C19.0021 12.2753 19.2493 11.8781 19.348 11.434L21 5H7V4C7 3.46957 6.78929 2.96086 6.41421 2.58579C6.03914 2.21071 5.53043 2 5 2H3V4H5V15C5 15.5304 5.21071 16.0391 5.58579 16.4142C5.96086 16.7893 6.46957 17 7 17H19C19 16.4696 18.7893 15.9609 18.4142 15.5858C18.0391 15.2107 17.5304 15 17 15H7V13H17.396Z" fill="#B9B9B9"/>
</svg>
