<svg width="24" height="24" viewBox="0 0 24 24" fill="none" xmlns="http://www.w3.org/2000/svg">
<path d="M15.8467 13.2387L13.3984 12.1665C11.4162 11.2985 9.85369 9.44313 9.12287 7.08946L8.21983 4.1819C8.18588 4.07259 8.09811 4 8 4C7.90189 4 7.81412 4.07259 7.78017 4.1819L6.87713 7.08929C6.14617 9.44313 4.58365 11.2985 2.60163 12.1665L0.153175 13.2387C0.061132 13.279 0 13.3832 0 13.4998C0 13.6163 0.061132 13.7205 0.153175 13.7608L2.60176 14.8333C4.58379 15.7014 6.14617 17.5567 6.87713 19.9104L7.78017 22.8181C7.81412 22.9274 7.90189 23 8 23C8.09811 23 8.18588 22.9274 8.21983 22.8181L9.12287 19.9104C9.85383 17.5567 11.4162 15.7012 13.3982 14.8333L15.8468 13.7608C15.9389 13.7205 16 13.6163 16 13.4998C16 13.3832 15.9387 13.279 15.8467 13.2387Z" fill="#B9B9B9"/>
<path d="M21.1744 5.34873L19.757 4.72797C18.6094 4.22543 17.7048 3.15129 17.2817 1.78863L16.7588 0.105309C16.7392 0.0420286 16.6884 0 16.6316 0C16.5748 0 16.524 0.0420286 16.5043 0.105309L15.9815 1.78854C15.5583 3.15129 14.6537 4.22543 13.5062 4.72797L12.0887 5.34873C12.0354 5.37206 12 5.4324 12 5.49986C12 5.56731 12.0354 5.62765 12.0887 5.65099L13.5063 6.27193C14.6538 6.77447 15.5583 7.84862 15.9815 9.21127L16.5043 10.8947C16.524 10.958 16.5748 11 16.6316 11C16.6884 11 16.7392 10.958 16.7588 10.8947L17.2817 9.21127C17.7048 7.84862 18.6094 6.77438 19.7569 6.27193L21.1745 5.65099C21.2278 5.62765 21.2632 5.56731 21.2632 5.49986C21.2632 5.4324 21.2277 5.37206 21.1744 5.34873Z" fill="#B9B9B9"/>
<path d="M21.9425 16.4645L21.0244 16.0624C20.2811 15.7369 19.6951 15.0412 19.4211 14.1585L19.0824 13.0682C19.0697 13.0272 19.0368 13 19 13C18.9632 13 18.9303 13.0272 18.9176 13.0682L18.5789 14.1585C18.3048 15.0412 17.7189 15.7369 16.9756 16.0624L16.0574 16.4645C16.0229 16.4796 16 16.5187 16 16.5624C16 16.6061 16.0229 16.6452 16.0574 16.6603L16.9757 17.0625C17.7189 17.388 18.3048 18.0838 18.5789 18.9664L18.9176 20.0568C18.9303 20.0978 18.9632 20.125 19 20.125C19.0368 20.125 19.0697 20.0978 19.0824 20.0568L19.4211 18.9664C19.6952 18.0838 20.2811 17.3879 21.0243 17.0625L21.9426 16.6603C21.9771 16.6452 22 16.6061 22 16.5624C22 16.5187 21.977 16.4796 21.9425 16.4645Z" fill="#B9B9B9"/>
</svg>
