<svg width="24" height="24" viewBox="0 0 24 24" fill="none" xmlns="http://www.w3.org/2000/svg">
<path fill-rule="evenodd" clip-rule="evenodd" d="M5.49841 8.34536C5.07724 4.97603 7.70442 2 11.1 2H12.8029C16.202 2 18.832 4.97918 18.4104 8.35208L18.3458 8.86901C18.2208 9.86912 18.5844 10.8683 19.3229 11.5542L19.3668 11.595C20.9801 13.0932 21.2932 15.5299 20.1111 17.3873C19.3385 18.6013 18.0431 19.3735 16.6225 19.4858L16.4312 19.8136C15.4184 21.5498 13.8404 22.5 12.1834 22.5C10.5264 22.5 8.94835 21.5498 7.93556 19.8136L7.74728 19.4909C6.05598 19.3856 4.54092 18.3782 3.79477 16.84L3.69142 16.6269C2.84477 14.8815 3.24086 12.7875 4.66654 11.4719C5.35455 10.8371 5.69388 9.90916 5.57776 8.98021L5.49841 8.34536ZM9.52013 19.5C10.2795 20.5377 11.2623 21 12.1834 21C13.1045 21 14.0873 20.5377 14.8467 19.5H9.52013Z" fill="#00B4FF"/>
</svg>
