<svg width="25" height="24" viewBox="0 0 25 24" fill="none" xmlns="http://www.w3.org/2000/svg">
<path d="M9.5679 3.22757C8.20441 3.07518 6.79536 3.07518 5.43187 3.22757C4.55469 3.32561 3.84539 4.01637 3.74195 4.9008C3.57886 6.29522 3.57886 7.70389 3.74195 9.09831C3.84539 9.98275 4.55469 10.6735 5.43187 10.7715C6.79537 10.9239 8.20441 10.9239 9.5679 10.7715C10.4451 10.6735 11.1544 9.98275 11.2578 9.09831C11.4209 7.70389 11.4209 6.29522 11.2578 4.9008C11.1544 4.01637 10.4451 3.32561 9.5679 3.22757Z" fill="#B9B9B9"/>
<path d="M9.5679 13.2276C8.20441 13.0752 6.79536 13.0752 5.43187 13.2276C4.55469 13.3256 3.84539 14.0164 3.74195 14.9008C3.57886 16.2952 3.57886 17.7039 3.74195 19.0983C3.84539 19.9827 4.55469 20.6735 5.43187 20.7715C6.79537 20.9239 8.20441 20.9239 9.5679 20.7715C10.4451 20.6735 11.1544 19.9827 11.2578 19.0983C11.4209 17.7039 11.4209 16.2952 11.2578 14.9008C11.1544 14.0164 10.4451 13.3256 9.5679 13.2276Z" fill="#B9B9B9"/>
<path d="M19.5679 3.22757C18.2044 3.07518 16.7954 3.07518 15.4319 3.22757C14.5547 3.32561 13.8454 4.01637 13.742 4.9008C13.5789 6.29522 13.5789 7.70389 13.742 9.09831C13.8454 9.98275 14.5547 10.6735 15.4319 10.7715C16.7954 10.9239 18.2044 10.9239 19.5679 10.7715C20.4451 10.6735 21.1544 9.98275 21.2578 9.09831C21.4209 7.70389 21.4209 6.29522 21.2578 4.9008C21.1544 4.01637 20.4451 3.32561 19.5679 3.22757Z" fill="#B9B9B9"/>
<path d="M19.5679 13.2276C18.2044 13.0752 16.7954 13.0752 15.4319 13.2276C14.5547 13.3256 13.8454 14.0164 13.742 14.9008C13.5789 16.2952 13.5789 17.7039 13.742 19.0983C13.8454 19.9827 14.5547 20.6735 15.4319 20.7715C16.7954 20.9239 18.2044 20.9239 19.5679 20.7715C20.4451 20.6735 21.1544 19.9827 21.2578 19.0983C21.4209 17.7039 21.4209 16.2952 21.2578 14.9008C21.1544 14.0164 20.4451 13.3256 19.5679 13.2276Z" fill="#B9B9B9"/>
</svg>
