<svg width="20" height="20" viewBox="0 0 20 20" fill="none" xmlns="http://www.w3.org/2000/svg">
<g clip-path="url(#clip0_7_1107)">
<path d="M16.3637 14.4697C16.0708 14.1768 15.5959 14.1768 15.3031 14.4697C15.0102 14.7626 15.0102 15.2375 15.303 15.5304L16.3637 14.4697ZM18.6363 18.8637C18.9292 19.1566 19.4041 19.1566 19.6969 18.8637C19.9898 18.5708 19.9898 18.0959 19.697 17.803L18.6363 18.8637ZM7.79881 4.12537C8.20792 4.06058 8.48705 3.6764 8.42225 3.26728C8.35745 2.85817 7.97327 2.57904 7.56416 2.64384L7.79881 4.12537ZM3.47716 6.73084C3.41236 7.13995 3.69149 7.52413 4.1006 7.58893C4.50971 7.65373 4.89389 7.37461 4.95869 6.96549L3.47716 6.73084ZM15.8334 15.0001L15.303 15.5304L18.6363 18.8637L19.1666 18.3333L19.697 17.803L16.3637 14.4697L15.8334 15.0001ZM9.16666 15.8333V15.0833C5.43873 15.0833 2.41666 12.0612 2.41666 8.33331H1.66666H0.916656C0.916656 12.8897 4.61031 16.5833 9.16666 16.5833V15.8333ZM16.6667 8.33331H15.9167C15.9167 12.0612 12.8946 15.0833 9.16666 15.0833V15.8333V16.5833C13.723 16.5833 17.4167 12.8897 17.4167 8.33331H16.6667ZM9.16666 0.833313V1.58331C12.8946 1.58331 15.9167 4.60539 15.9167 8.33331H16.6667H17.4167C17.4167 3.77696 13.723 0.083313 9.16666 0.083313V0.833313ZM9.16666 0.833313V0.083313C4.61031 0.083313 0.916656 3.77696 0.916656 8.33331H1.66666H2.41666C2.41666 4.60539 5.43873 1.58331 9.16666 1.58331V0.833313ZM7.68148 3.38461L7.56416 2.64384C5.46035 2.97705 3.81037 4.62704 3.47716 6.73084L4.21793 6.84817L4.95869 6.96549C5.19024 5.50353 6.33684 4.35693 7.79881 4.12537L7.68148 3.38461Z" fill="#5D5C5C"/>
</g>
<defs>
<clipPath id="clip0_7_1107">
<rect width="20" height="20" fill="white"/>
</clipPath>
</defs>
</svg>
