<svg width="31" height="31" viewBox="0 0 31 31" fill="none" xmlns="http://www.w3.org/2000/svg">
<path d="M22.1863 11.1906C24.1798 12.6207 26.6219 13.4621 29.2595 13.4621V8.36849C28.7604 8.3686 28.2625 8.31636 27.7741 8.21252V12.2219C25.1367 12.2219 22.6949 11.3805 20.7009 9.95051V20.3452C20.7009 25.5451 16.5005 29.7602 11.3194 29.7602C9.38615 29.7602 7.58931 29.1736 6.09668 28.1677C7.80027 29.9158 10.1761 31.0003 12.8045 31.0003C17.9859 31.0003 22.1865 26.7852 22.1865 21.585V11.1906H22.1863V11.1906ZM24.0188 6.05173C23 4.93474 22.3311 3.49124 22.1863 1.89539V1.24023H20.7787C21.133 3.26857 22.3415 5.00145 24.0188 6.05173ZM9.37375 24.1774C8.80455 23.4285 8.49695 22.5122 8.49833 21.5701C8.49833 19.1919 10.4196 17.2636 12.7898 17.2636C13.2316 17.2635 13.6707 17.3313 14.0916 17.4654V12.2579C13.5997 12.1902 13.1032 12.1615 12.6069 12.172V16.2253C12.1856 16.0913 11.7463 16.0232 11.3044 16.0236C8.93413 16.0236 7.01301 17.9517 7.01301 20.3303C7.01301 22.0121 7.9733 23.4681 9.37375 24.1774Z" fill="#FF004F"/>
<path d="M20.7009 9.95041C22.6949 11.3804 25.1367 12.2218 27.7741 12.2218V8.21242C26.302 7.89771 24.9987 7.12564 24.0188 6.05174C22.3415 5.00134 21.133 3.26846 20.7787 1.24023H17.0812V21.5848C17.0728 23.9566 15.1549 25.877 12.7897 25.877C11.3959 25.877 10.1577 25.2103 9.37346 24.1774C7.97312 23.4681 7.01282 22.012 7.01282 20.3304C7.01282 17.952 8.93394 16.0237 11.3042 16.0237C11.7584 16.0237 12.1961 16.0947 12.6067 16.2254V12.1722C7.51654 12.2777 3.42285 16.4516 3.42285 21.5849C3.42285 24.1474 4.44227 26.4705 6.09681 28.1678C7.58944 29.1736 9.38628 29.7603 11.3195 29.7603C16.5007 29.7603 20.701 25.545 20.701 20.3452V9.95041H20.7009Z" fill="black"/>
<path d="M27.7741 8.21216V7.12804C26.4466 7.13006 25.1451 6.75695 24.0187 6.05137C25.0158 7.14687 26.3287 7.90224 27.7741 8.21216ZM20.7787 1.23998C20.7449 1.04614 20.7189 0.851016 20.7009 0.655151V0H15.5956V20.3448C15.5874 22.7162 13.6696 24.6367 11.3042 24.6367C10.6097 24.6367 9.95408 24.4713 9.37343 24.1773C10.1576 25.21 11.3958 25.8767 12.7896 25.8767C15.1546 25.8767 17.0729 23.9564 17.0811 21.5847V1.23998H20.7787ZM12.6068 12.1719V11.0178C12.1803 10.9593 11.7502 10.9299 11.3196 10.9301C6.13789 10.93 1.9375 15.1453 1.9375 20.3448C1.9375 23.6046 3.58833 26.4775 6.09689 28.1674C4.44235 26.4701 3.42293 24.147 3.42293 21.5846C3.42293 16.4513 7.51651 12.2774 12.6068 12.1719Z" fill="#00F2EA"/>
</svg>
