<svg width="19" height="19" viewBox="0 0 19 19" fill="none" xmlns="http://www.w3.org/2000/svg">
<path d="M9.17462 2.375C9.17462 2.21753 9.11207 2.06651 9.00072 1.95516C8.88937 1.84381 8.73835 1.78125 8.58087 1.78125C8.4234 1.78125 8.27238 1.84381 8.16103 1.95516C8.04968 2.06651 7.98712 2.21753 7.98712 2.375V3.94092C7.98712 4.09839 8.04968 4.24941 8.16103 4.36076C8.27238 4.47211 8.4234 4.53467 8.58087 4.53467C8.73835 4.53467 8.88937 4.47211 9.00072 4.36076C9.11207 4.24941 9.17462 4.09839 9.17462 3.94092V2.375ZM4.73654 3.91479C4.62515 3.80591 4.47543 3.74516 4.31967 3.74565C4.1639 3.74613 4.01456 3.80781 3.90385 3.91738C3.79314 4.02695 3.72991 4.17564 3.72782 4.33139C3.72572 4.48714 3.78491 4.63748 3.89262 4.75L5.05638 5.92404C5.10987 5.98454 5.17514 6.03348 5.2482 6.06789C5.32126 6.10229 5.40057 6.12143 5.48128 6.12414C5.56199 6.12684 5.6424 6.11306 5.7176 6.08362C5.7928 6.05418 5.8612 6.00972 5.91862 5.95294C5.97605 5.89616 6.02129 5.82827 6.05158 5.75341C6.08186 5.67855 6.09656 5.59829 6.09477 5.51756C6.09298 5.43683 6.07474 5.3573 6.04116 5.28386C6.00759 5.21042 5.95938 5.14459 5.8995 5.09042L4.73654 3.91479ZM13.2691 4.75C13.3735 4.63696 13.43 4.4878 13.4266 4.33396C13.4231 4.18012 13.3601 4.03362 13.2508 3.92532C13.1415 3.81703 12.9944 3.75541 12.8405 3.75344C12.6867 3.75148 12.538 3.80932 12.426 3.91479L11.2622 5.08963C11.2042 5.14426 11.1577 5.21003 11.1257 5.28301C11.0936 5.35599 11.0765 5.43468 11.0755 5.5144C11.0745 5.59411 11.0895 5.67321 11.1197 5.74698C11.15 5.82076 11.1947 5.88769 11.2513 5.9438C11.308 5.9999 11.3753 6.04402 11.4494 6.07354C11.5234 6.10305 11.6027 6.11735 11.6824 6.11558C11.7621 6.11381 11.8406 6.09601 11.9133 6.06324C11.986 6.03047 12.0513 5.9834 12.1054 5.92483L13.2691 4.75ZM9.34167 7.99267C8.53021 7.67283 7.76308 8.48113 8.06708 9.26725L10.902 16.5902C11.2266 17.4277 12.407 17.4285 12.7316 16.5902L13.8193 13.7853L16.5965 12.6888C17.4262 12.3611 17.4262 11.1823 16.5965 10.8545L9.34167 7.99267ZM3.92667 8.04571H2.375C2.21753 8.04571 2.06651 8.10826 1.95516 8.21961C1.84381 8.33096 1.78125 8.48199 1.78125 8.63946C1.78125 8.79693 1.84381 8.94795 1.95516 9.0593C2.06651 9.17065 2.21753 9.23321 2.375 9.23321H3.92667C4.08414 9.23321 4.23516 9.17065 4.34651 9.0593C4.45786 8.94795 4.52042 8.79693 4.52042 8.63946C4.52042 8.48199 4.45786 8.33096 4.34651 8.21961C4.23516 8.10826 4.08414 8.04571 3.92667 8.04571ZM5.8995 12.1893C6.00728 12.0769 6.06657 11.9266 6.06459 11.7709C6.06262 11.6151 5.99954 11.4664 5.88895 11.3568C5.77836 11.2471 5.62911 11.1853 5.47338 11.1847C5.31764 11.184 5.16788 11.2446 5.05638 11.3533L3.89262 12.5281C3.83773 12.5835 3.79429 12.6492 3.76478 12.7214C3.73527 12.7936 3.72028 12.8709 3.72064 12.9489C3.72101 13.0269 3.73674 13.1041 3.76693 13.176C3.79711 13.2479 3.84117 13.3132 3.89658 13.3681C3.952 13.423 4.01768 13.4664 4.08988 13.4959C4.16208 13.5254 4.23939 13.5404 4.31738 13.5401C4.39538 13.5397 4.47254 13.524 4.54446 13.4938C4.61638 13.4636 4.68165 13.4195 4.73654 13.3641L5.8995 12.1893Z" fill="#00B4FF"/>
</svg>
