<svg width="20" height="22" viewBox="0 0 20 22" fill="none" xmlns="http://www.w3.org/2000/svg">
<path fill-rule="evenodd" clip-rule="evenodd" d="M4.77141 3.04167C4.77141 1.49987 6.02129 0.25 7.56308 0.25H12.7291C14.1098 0.25 15.2291 1.36929 15.2291 2.75C15.2291 3.30228 15.6768 3.75 16.2291 3.75H16.8184C18.4033 3.75 19.7972 4.97999 19.7326 6.66561C19.6498 8.82667 19.2301 12.2931 17.5468 15.3608C17.0905 16.1923 16.4811 17.0092 15.8223 17.7703L15.7727 17.8276C14.825 18.9226 14.0349 19.8356 13.1854 20.4579C12.2717 21.1273 11.2965 21.4607 10.0003 21.4607C8.70396 21.4607 7.72878 21.1273 6.81509 20.4579C5.96562 19.8356 5.17546 18.9226 4.22779 17.8276L4.1782 17.7703C3.51943 17.0092 2.91004 16.1923 2.45375 15.3608C0.824595 12.3918 0.377942 9.25749 0.276419 7.24648C0.190911 5.55273 1.59483 4.33333 3.17088 4.33333H3.47975C4.19312 4.33333 4.77141 3.75503 4.77141 3.04167Z" fill="#D1D1D1"/>
</svg>
