<svg width="25" height="24" viewBox="0 0 25 24" fill="none" xmlns="http://www.w3.org/2000/svg">
<path d="M13.5388 3.58189C12.9393 3.26901 12.1159 3.26431 11.5122 3.57608C8.93359 4.90782 6.59691 6.43365 4.55094 8.12426C4.27811 8.3497 4.09757 8.66523 4.10066 9.02588C4.10373 9.3853 4.28838 9.69732 4.56031 9.91966C6.58981 11.5791 8.92912 13.1067 11.4609 14.4281C12.0604 14.741 12.8838 14.7457 13.4875 14.4339C16.0661 13.1022 18.4028 11.5763 20.4488 9.88574C20.7216 9.6603 20.9021 9.34477 20.899 8.98411C20.896 8.62469 20.7113 8.31268 20.4394 8.09033C18.4099 6.43089 16.0706 4.90327 13.5388 3.58189Z" fill="#B9B9B9"/>
<path d="M21.4579 13.7314C21.8092 13.512 21.9162 13.0494 21.6969 12.698C21.4775 12.3467 21.0149 12.2397 20.6635 12.459L14.5563 16.2719C14.0122 16.6116 13.2731 16.8009 12.4997 16.801C11.7262 16.801 10.987 16.6117 10.4429 16.2721L4.40256 12.5024C4.05116 12.2831 3.58852 12.3902 3.36921 12.7416C3.14991 13.093 3.25699 13.5556 3.60839 13.7749L9.64872 17.5446C10.4776 18.0619 11.5058 18.301 12.4998 18.301C13.4937 18.3009 14.5219 18.0617 15.3506 17.5443L21.4579 13.7314Z" fill="#B9B9B9"/>
<path d="M21.458 17.4861C21.8093 17.2667 21.9162 16.804 21.6968 16.4527C21.4774 16.1013 21.0148 15.9944 20.6634 16.2138L15.3745 19.5167C14.6017 19.9993 13.5678 20.2602 12.4996 20.2602C11.4314 20.2603 10.3975 19.9995 9.6245 19.517L4.40263 16.2572C4.05127 16.0378 3.58861 16.1448 3.36926 16.4962C3.14992 16.8476 3.25694 17.3102 3.60831 17.5296L8.83017 20.7894C9.88795 21.4497 11.211 21.7603 12.4997 21.7602C13.7884 21.7602 15.1114 21.4494 16.1691 20.7889L21.458 17.4861Z" fill="#B9B9B9"/>
</svg>
